<svg width="24" height="24" viewBox="0 0 24 24" fill="none" xmlns="http://www.w3.org/2000/svg">
<path d="M16.17 13.13C17.54 14.06 18.5 15.32 18.5 17V20H22.5V17C22.5 14.82 18.93 13.53 16.17 13.13Z" fill="#475569"/>
<path d="M14.5 12C16.71 12 18.5 10.21 18.5 8C18.5 5.79 16.71 4 14.5 4C14.03 4 13.59 4.1 13.17 4.24C14 5.27 14.5 6.58 14.5 8C14.5 9.42 14 10.73 13.17 11.76C13.59 11.9 14.03 12 14.5 12Z" fill="#475569"/>
<path d="M8.5 12C10.71 12 12.5 10.21 12.5 8C12.5 5.79 10.71 4 8.5 4C6.29 4 4.5 5.79 4.5 8C4.5 10.21 6.29 12 8.5 12ZM8.5 6C9.6 6 10.5 6.9 10.5 8C10.5 9.1 9.6 10 8.5 10C7.4 10 6.5 9.1 6.5 8C6.5 6.9 7.4 6 8.5 6Z" fill="#475569"/>
<path d="M8.5 13C5.83 13 0.5 14.34 0.5 17V20H16.5V17C16.5 14.34 11.17 13 8.5 13ZM14.5 18H2.5V17.01C2.7 16.29 5.8 15 8.5 15C11.2 15 14.3 16.29 14.5 17V18Z" fill="#475569"/>
</svg>
