<svg width="26" height="25" viewBox="0 0 26 25" fill="none" xmlns="http://www.w3.org/2000/svg">
<path d="M11.1984 3.875C11.1984 3.37772 11.388 2.90081 11.7255 2.54917C12.0631 2.19754 12.5208 2 12.9981 2C13.4754 2 13.9332 2.19754 14.2707 2.54917C14.6082 2.90081 14.7978 3.37772 14.7978 3.875C14.7978 4.37228 14.6082 4.84919 14.2707 5.20083C13.9332 5.55246 13.4754 5.75 12.9981 5.75C12.5208 5.75 12.0631 5.55246 11.7255 5.20083C11.388 4.84919 11.1984 4.37228 11.1984 3.875ZM12.6982 15.75V20.75C12.6982 21.4414 12.162 22 11.4984 22C10.8347 22 10.2986 21.4414 10.2986 20.75V12.0352L9.22624 13.8945C8.88505 14.4844 8.14642 14.6758 7.58026 14.3203C7.0141 13.9648 6.83038 13.1953 7.17158 12.6055L9.35747 8.81641C10.0099 7.6875 11.1797 6.99609 12.4432 6.99609H13.5568C14.8203 6.99609 15.9901 7.6875 16.6425 8.81641L18.8284 12.6055C19.1696 13.1953 18.9859 13.9648 18.4197 14.3203C17.8536 14.6758 17.115 14.4844 16.7738 13.8945L15.6977 12.0352V20.75C15.6977 21.4414 15.1615 22 14.4979 22C13.8342 22 13.2981 21.4414 13.2981 20.75V15.75H12.6982Z" fill="#204EA5"/>
</svg>
