<svg width="17" height="20" viewBox="0 0 17 20" fill="none" xmlns="http://www.w3.org/2000/svg">
<path d="M8.5 5.45455C9.00096 5.45455 9.48141 5.26299 9.83565 4.92201C10.1899 4.58104 10.3889 4.11858 10.3889 3.63636C10.3889 3.29091 10.2944 2.97273 10.115 2.7L8.5 0L6.885 2.7C6.70556 2.97273 6.61111 3.29091 6.61111 3.63636C6.61111 4.63636 7.46111 5.45455 8.5 5.45455ZM14.1667 8.18182H9.44444V6.36364H7.55556V8.18182H2.83333C1.26556 8.18182 0 9.4 0 10.9091V19.0909C0 19.5909 0.425 20 0.944444 20H16.0556C16.575 20 17 19.5909 17 19.0909V10.9091C17 9.4 15.7344 8.18182 14.1667 8.18182ZM15.1111 18.1818H1.88889V15.4545C2.73889 15.4545 3.55111 15.1182 4.15556 14.5455L5.19444 13.5636L6.19556 14.5455C7.43278 15.7273 9.58611 15.7182 10.8139 14.5455L11.8339 13.5636L12.8444 14.5455C13.4489 15.1182 14.2611 15.4545 15.1111 15.4545V18.1818ZM15.1111 14.0909C14.6389 14.0909 14.1667 13.9091 13.8361 13.5727L11.8056 11.6364L9.80333 13.5727C9.10444 14.2455 7.88611 14.2455 7.18722 13.5727L5.19444 11.6364L3.15444 13.5727C2.83333 13.9 2.36111 14.0909 1.88889 14.0909V10.9091C1.88889 10.4091 2.31389 10 2.83333 10H14.1667C14.6861 10 15.1111 10.4091 15.1111 10.9091V14.0909Z" fill="#6B7280"/>
</svg>
