<svg width="17" height="19" viewBox="0 0 17 19" fill="none" xmlns="http://www.w3.org/2000/svg">
<path d="M5.66667 13.775C5.00556 13.775 4.44676 13.5454 3.99028 13.0863C3.5338 12.6271 3.30556 12.065 3.30556 11.4C3.30556 10.735 3.5338 10.1729 3.99028 9.71375C4.44676 9.25458 5.00556 9.025 5.66667 9.025C6.32778 9.025 6.88657 9.25458 7.34306 9.71375C7.79954 10.1729 8.02778 10.735 8.02778 11.4C8.02778 12.065 7.79954 12.6271 7.34306 13.0863C6.88657 13.5454 6.32778 13.775 5.66667 13.775ZM1.88889 19C1.36944 19 0.924769 18.814 0.554861 18.4419C0.184954 18.0698 0 17.6225 0 17.1V3.8C0 3.2775 0.184954 2.83021 0.554861 2.45813C0.924769 2.08604 1.36944 1.9 1.88889 1.9H2.83333V0H4.72222V1.9H12.2778V0H14.1667V1.9H15.1111C15.6306 1.9 16.0752 2.08604 16.4451 2.45813C16.815 2.83021 17 3.2775 17 3.8V17.1C17 17.6225 16.815 18.0698 16.4451 18.4419C16.0752 18.814 15.6306 19 15.1111 19H1.88889ZM1.88889 17.1H15.1111V7.6H1.88889V17.1Z" fill="#49454F"/>
</svg>
