<svg width="25" height="24" viewBox="0 0 25 24" fill="none" xmlns="http://www.w3.org/2000/svg">
<path d="M21.4284 4.33333H19.0951V2H7.42839V4.33333H5.09505C3.81172 4.33333 2.76172 5.38333 2.76172 6.66667V7.83333C2.76172 10.8083 5.00172 13.235 7.88339 13.5967C8.61838 15.3467 10.1934 16.665 12.0951 17.05V20.6667H7.42839V23H19.0951V20.6667H14.4284V17.05C16.3301 16.665 17.9051 15.3467 18.6401 13.5967C21.5217 13.235 23.7617 10.8083 23.7617 7.83333V6.66667C23.7617 5.38333 22.7117 4.33333 21.4284 4.33333ZM5.09505 7.83333V6.66667H7.42839V11.1233C6.07505 10.6333 5.09505 9.35 5.09505 7.83333ZM13.2617 14.8333C11.3367 14.8333 9.76172 13.2583 9.76172 11.3333V4.33333H16.7617V11.3333C16.7617 13.2583 15.1867 14.8333 13.2617 14.8333ZM21.4284 7.83333C21.4284 9.35 20.4484 10.6333 19.0951 11.1233V6.66667H21.4284V7.83333Z" fill="#002160"/>
</svg>
