<svg width="40" height="48" viewBox="0 0 40 48" fill="none" xmlns="http://www.w3.org/2000/svg">
<g clip-path="url(#clip0_798_13126)">
<path d="M20 32C19.45 32 18.9792 31.8042 18.5875 31.4125C18.1958 31.0208 18 30.55 18 30C18 29.45 18.1958 28.9792 18.5875 28.5875C18.9792 28.1958 19.45 28 20 28C20.55 28 21.0208 28.1958 21.4125 28.5875C21.8042 28.9792 22 29.45 22 30C22 30.55 21.8042 31.0208 21.4125 31.4125C21.0208 31.8042 20.55 32 20 32ZM20 26C19.45 26 18.9792 25.8042 18.5875 25.4125C18.1958 25.0208 18 24.55 18 24C18 23.45 18.1958 22.9792 18.5875 22.5875C18.9792 22.1958 19.45 22 20 22C20.55 22 21.0208 22.1958 21.4125 22.5875C21.8042 22.9792 22 23.45 22 24C22 24.55 21.8042 25.0208 21.4125 25.4125C21.0208 25.8042 20.55 26 20 26ZM20 20C19.45 20 18.9792 19.8042 18.5875 19.4125C18.1958 19.0208 18 18.55 18 18C18 17.45 18.1958 16.9792 18.5875 16.5875C18.9792 16.1958 19.45 16 20 16C20.55 16 21.0208 16.1958 21.4125 16.5875C21.8042 16.9792 22 17.45 22 18C22 18.55 21.8042 19.0208 21.4125 19.4125C21.0208 19.8042 20.55 20 20 20Z" fill="white"/>
</g>
<defs>
<clipPath id="clip0_798_13126">
<rect y="4" width="40" height="40" rx="20" fill="white"/>
</clipPath>
</defs>
</svg>
