<svg width="20" height="16" viewBox="0 0 20 16" fill="none" xmlns="http://www.w3.org/2000/svg">
<g clip-path="url(#clip0_656_12188)">
<path fill-rule="evenodd" clip-rule="evenodd" d="M0 0.5H20V15.5H0V0.5Z" fill="#F7FCFF"/>
<path fill-rule="evenodd" clip-rule="evenodd" d="M0 9.66687V10.9169H20V9.66687H0ZM0 11.9581V13.2081H20V11.9581H0ZM0 5.08313V6.33313H20V5.08313H0ZM0 14.25V15.5H20V14.25H0ZM0 7.375V8.625H20V7.375H0ZM0 0.5V1.75H20V0.5H0ZM0 2.79188V4.04187H20V2.79188H0Z" fill="#E31D1C"/>
<path d="M0 0.5H12.5V8.625H0V0.5Z" fill="#2E42A5"/>
<path fill-rule="evenodd" clip-rule="evenodd" d="M1.07582 2.33689L0.62207 2.65502L0.775195 2.08877L0.37207 1.73002H0.898945L1.0752 1.26752L1.28207 1.73002H1.73082L1.37832 2.08877L1.51457 2.65502L1.07582 2.33689ZM3.57582 2.33689L3.12207 2.65502L3.2752 2.08877L2.8727 1.73002H3.39895L3.5752 1.26752L3.78207 1.73002H4.23082L3.87832 2.08877L4.01457 2.65502L3.57582 2.33689ZM5.62207 2.65502L6.07582 2.33627L6.51457 2.65502L6.37832 2.08877L6.73082 1.73002H6.28207L6.0752 1.26752L5.89895 1.73002H5.3727L5.7752 2.08877L5.62207 2.65502ZM8.57582 2.33627L8.12207 2.65502L8.2752 2.08877L7.8727 1.73002H8.39895L8.5752 1.26752L8.78207 1.73002H9.23082L8.87832 2.08877L9.01457 2.65502L8.57582 2.33627ZM0.62207 5.15564L1.07582 4.83689L1.51457 5.15564L1.37832 4.58939L1.73082 4.23064H1.28207L1.0752 3.76814L0.898945 4.23064H0.37207L0.775195 4.58939L0.62207 5.15564ZM3.57582 4.83689L3.12207 5.15564L3.2752 4.58939L2.8727 4.23064H3.39895L3.5752 3.76814L3.78207 4.23064H4.23082L3.87832 4.58939L4.01457 5.15564L3.57582 4.83689ZM5.62207 5.15564L6.07582 4.83689L6.51457 5.15564L6.37832 4.58939L6.73082 4.23064H6.28207L6.0752 3.76814L5.89895 4.23064H5.3727L5.7752 4.58939L5.62207 5.15564ZM8.57582 4.83689L8.12207 5.15564L8.2752 4.58939L7.8727 4.23064H8.39895L8.5752 3.76814L8.78207 4.23064H9.23082L8.87832 4.58939L9.01457 5.15564L8.57582 4.83689ZM0.62207 7.65564L1.07582 7.33689L1.51457 7.65564L1.37832 7.08939L1.73082 6.73064H1.28207L1.0752 6.26814L0.898945 6.73064H0.37207L0.775195 7.08939L0.62207 7.65564ZM3.57582 7.33689L3.12207 7.65564L3.2752 7.08939L2.8727 6.73064H3.39895L3.5752 6.26814L3.78207 6.73064H4.23082L3.87832 7.08939L4.01457 7.65564L3.57582 7.33689ZM5.62207 7.65564L6.07582 7.33689L6.51457 7.65564L6.37832 7.08939L6.73082 6.73064H6.28207L6.0752 6.26814L5.89895 6.73064H5.3727L5.7752 7.08939L5.62207 7.65564ZM8.57582 7.33689L8.12207 7.65564L8.2752 7.08939L7.8727 6.73064H8.39895L8.5752 6.26814L8.78207 6.73064H9.23082L8.87832 7.08939L9.01457 7.65564L8.57582 7.33689ZM10.6221 2.65564L11.0758 2.33689L11.5146 2.65564L11.3783 2.08939L11.7308 1.73064H11.2821L11.0752 1.26814L10.8989 1.73064H10.3721L10.7752 2.08939L10.6221 2.65564ZM11.0758 4.83689L10.6221 5.15564L10.7752 4.58939L10.3721 4.23064H10.8989L11.0752 3.76814L11.2821 4.23064H11.7308L11.3783 4.58939L11.5146 5.15564L11.0758 4.83689ZM10.6221 7.65564L11.0758 7.33689L11.5146 7.65564L11.3783 7.08939L11.7308 6.73064H11.2821L11.0752 6.26814L10.8989 6.73064H10.3721L10.7752 7.08939L10.6221 7.65564ZM2.32582 3.58627L1.87207 3.90502L2.0252 3.33877L1.62207 2.98002H2.14895L2.3252 2.51752L2.53207 2.98002H2.98082L2.62832 3.33877L2.76457 3.90502L2.32582 3.58627ZM4.37207 3.90502L4.82582 3.58627L5.26457 3.90502L5.12832 3.33877L5.48082 2.98002H5.03207L4.8252 2.51752L4.64895 2.98002H4.12207L4.5252 3.33877L4.37207 3.90502ZM7.32582 3.58627L6.87207 3.90502L7.0252 3.33877L6.6227 2.98002H7.14895L7.3252 2.51752L7.53207 2.98002H7.98082L7.62832 3.33877L7.76457 3.90502L7.32582 3.58627ZM1.87207 6.40502L2.32582 6.08627L2.76457 6.40502L2.62832 5.83877L2.98082 5.48002H2.53207L2.3252 5.01752L2.14895 5.48002H1.62207L2.0252 5.83877L1.87207 6.40502ZM4.82582 6.08627L4.37207 6.40502L4.5252 5.83877L4.1227 5.48002H4.64895L4.8252 5.01752L5.03207 5.48002H5.48082L5.12832 5.83877L5.26457 6.40502L4.82582 6.08627ZM6.87207 6.40502L7.32582 6.08627L7.76457 6.40502L7.62832 5.83877L7.98082 5.48002H7.53207L7.3252 5.01752L7.14895 5.48002H6.6227L7.0252 5.83877L6.87207 6.40502ZM9.82582 3.58627L9.37207 3.90502L9.5252 3.33877L9.1227 2.98002H9.64895L9.8252 2.51752L10.0321 2.98002H10.4808L10.1283 3.33877L10.2646 3.90502L9.82582 3.58627ZM9.37207 6.40502L9.82582 6.08627L10.2646 6.40502L10.1283 5.83877L10.4808 5.48002H10.0321L9.8252 5.01752L9.64895 5.48002H9.1227L9.5252 5.83877L9.37207 6.40502Z" fill="#F7FCFF"/>
</g>
<defs>
<clipPath id="clip0_656_12188">
<rect y="0.5" width="20" height="15" rx="3" fill="white"/>
</clipPath>
</defs>
</svg>
