<svg width="39" height="40" viewBox="0 0 39 40" fill="none" xmlns="http://www.w3.org/2000/svg">
<g clip-path="url(#clip0_794_10151)">
<path d="M10.919 30C10.372 30 9.91556 29.8075 9.54981 29.4225C9.18406 29.0375 9.00079 28.5567 9 27.98V12.02C9 11.4442 9.18327 10.9637 9.54981 10.5787C9.91635 10.1937 10.3728 10.0008 10.919 10H22.7477L28 15.5287V27.9812C28 28.5562 27.8171 29.0367 27.4514 29.4225C27.0856 29.8083 26.6288 30.0008 26.081 30H10.919ZM10.919 28.75H26.0822C26.2951 28.75 26.4701 28.6779 26.6071 28.5337C26.744 28.3896 26.8125 28.2054 26.8125 27.9812V16.25H22.0625V11.25H10.919C10.7053 11.25 10.5299 11.3221 10.3929 11.4662C10.256 11.6104 10.1875 11.795 10.1875 12.02V27.9812C10.1875 28.2054 10.256 28.3896 10.3929 28.5337C10.5299 28.6779 10.7053 28.75 10.919 28.75ZM13.1562 25H23.8438V23.75H13.1562V25ZM13.1562 16.25H18.5V15H13.1562V16.25ZM13.1562 20.625H23.8438V19.375H13.1562V20.625Z" fill="black"/>
</g>
<defs>
<clipPath id="clip0_794_10151">
<rect x="-1.5" width="40" height="40" rx="20" fill="white"/>
</clipPath>
</defs>
</svg>
