<svg width="25" height="24" viewBox="0 0 25 24" fill="none" xmlns="http://www.w3.org/2000/svg">
<path d="M12.7339 21.5635C18.1364 21.5635 22.5157 17.1842 22.5157 11.7818C22.5157 6.3793 18.1364 2 12.7339 2C7.33145 2 2.95215 6.3793 2.95215 11.7818C2.95215 17.1842 7.33145 21.5635 12.7339 21.5635Z" stroke="#2C6DFB" stroke-width="1.7"/>
<path d="M17.6242 8.11869L14.9415 9.66753C14.883 9.70148 14.8169 9.72026 14.7496 9.72207C14.6822 9.72389 14.6158 9.70869 14.5566 9.67791L9.46679 7.03084C9.40779 7.00017 9.34164 6.98496 9.27452 6.98666C9.2074 6.98836 9.14152 7.00691 9.08306 7.04056L8.56572 7.33924C8.51328 7.36951 8.4683 7.41111 8.43419 7.46086C8.40008 7.51061 8.37775 7.56721 8.36889 7.62635C8.36003 7.6855 8.36488 7.74563 8.38306 7.80217C8.40124 7.85872 8.43229 7.91019 8.47383 7.95267L11.5265 11.0788C11.568 11.1213 11.599 11.1728 11.6172 11.2293C11.6354 11.2859 11.6403 11.346 11.6314 11.4052C11.6225 11.4643 11.6002 11.5209 11.5661 11.5707C11.532 11.6204 11.487 11.662 11.4346 11.6923L9.73311 12.6746C9.68397 12.7029 9.62947 12.7206 9.57326 12.7265C9.51706 12.7324 9.46043 12.7264 9.40718 12.7088L7.61821 12.1191C7.23816 11.9945 6.92505 12.4465 7.18254 12.7478L8.58132 14.386C9.16071 15.0649 10.0999 14.7159 10.7089 14.3647L12.4104 13.3824C12.4627 13.3522 12.5212 13.334 12.5813 13.3294C12.6413 13.3247 12.7014 13.3336 12.757 13.3555C12.8126 13.3773 12.8623 13.4115 12.9021 13.4554C12.942 13.4993 12.9711 13.5518 12.9872 13.609L14.1689 17.8168C14.185 17.874 14.2141 17.9265 14.254 17.9704C14.2939 18.0143 14.3435 18.0485 14.3991 18.0703C14.4547 18.0922 14.5148 18.1011 14.5749 18.0964C14.6349 18.0918 14.6934 18.0736 14.7458 18.0434L15.2631 17.7447C15.3215 17.7109 15.3705 17.6631 15.4055 17.6059C15.4405 17.5486 15.4605 17.4837 15.4634 17.4173L15.7165 11.6855C15.7194 11.6189 15.7394 11.5539 15.7745 11.4966C15.8096 11.4392 15.8588 11.3914 15.9173 11.3577L18.6 9.80882C18.8287 9.6768 18.9966 9.46114 19.0668 9.20931C19.137 8.95747 19.1037 8.69008 18.9743 8.46595C18.8449 8.24183 18.63 8.07933 18.3768 8.0142C18.1236 7.94908 17.8529 7.98667 17.6242 8.11869Z" fill="#2C6DFB"/>
</svg>
