<svg width="20" height="19" viewBox="0 0 20 19" fill="none" xmlns="http://www.w3.org/2000/svg">
<path d="M10 18.35L8.55 17.03C3.4 12.36 0 9.28 0 5.5C0 2.42 2.42 0 5.5 0C7.24 0 8.91 0.81 10 2.09C11.09 0.81 12.76 0 14.5 0C17.58 0 20 2.42 20 5.5C20 9.28 16.6 12.36 11.45 17.04L10 18.35Z" fill="#2C6DFB"/>
<path d="M10 18.8116L8.55 17.4789C6.86667 15.9241 5.475 14.5829 4.375 13.4552C3.275 12.3275 2.4 11.3194 1.75 10.431C1.1 9.52542 0.641667 8.69675 0.375 7.94497C0.125 7.19319 0 6.42432 0 5.63837C0 4.03229 0.525 2.69104 1.575 1.61462C2.625 0.538208 3.93333 0 5.5 0C6.36667 0 7.19167 0.187946 7.975 0.563837C8.75833 0.939728 9.43333 1.46939 10 2.15283C10.5667 1.46939 11.2417 0.939728 12.025 0.563837C12.8083 0.187946 13.6333 0 14.5 0C16.0667 0 17.375 0.538208 18.425 1.61462C19.475 2.69104 20 4.03229 20 5.63837C20 6.42432 19.8667 7.19319 19.6 7.94497C19.35 8.69675 18.9 9.52542 18.25 10.431C17.6 11.3194 16.725 12.3275 15.625 13.4552C14.525 14.5829 13.1333 15.9241 11.45 17.4789L10 18.8116ZM10 16.0437C11.6 14.5743 12.9167 13.3185 13.95 12.2763C14.9833 11.2169 15.8 10.3028 16.4 9.53396C17 8.74801 17.4167 8.05603 17.65 7.45802C17.8833 6.84293 18 6.23637 18 5.63837C18 4.61321 17.6667 3.75891 17 3.07547C16.3333 2.39203 15.5 2.05032 14.5 2.05032C13.7167 2.05032 12.9917 2.28098 12.325 2.7423C11.6583 3.18653 11.2 3.75891 10.95 4.45943H9.05C8.8 3.75891 8.34167 3.18653 7.675 2.7423C7.00833 2.28098 6.28333 2.05032 5.5 2.05032C4.5 2.05032 3.66667 2.39203 3 3.07547C2.33333 3.75891 2 4.61321 2 5.63837C2 6.23637 2.11667 6.84293 2.35 7.45802C2.58333 8.05603 3 8.74801 3.6 9.53396C4.2 10.3028 5.01667 11.2169 6.05 12.2763C7.08333 13.3185 8.4 14.5743 10 16.0437Z" fill="white"/>
</svg>
