<svg width="24" height="24" viewBox="0 0 24 24" fill="none" xmlns="http://www.w3.org/2000/svg">
<path d="M4.25043 16.725L5.34679 15.6363C4.14632 14.5584 3.20311 13.2248 2.58672 11.7338C4.14309 7.84675 8.43654 4.83367 12.5 4.83367C13.5456 4.84775 14.5818 5.03426 15.5667 5.38568L16.7551 4.18965C15.4079 3.61987 13.9626 3.3178 12.5 3.30029C10.001 3.39427 7.58428 4.21844 5.54858 5.67095C3.51289 7.12347 1.94742 9.14064 1.04568 11.4732C0.984775 11.6416 0.984775 11.8261 1.04568 11.9945C1.72668 13.8016 2.82472 15.4224 4.25043 16.725Z" fill="#1E2940"/>
<path d="M9.43249 11.5266C9.48581 10.7919 9.8018 10.1009 10.3227 9.58006C10.8436 9.05917 11.5345 8.74319 12.2692 8.68987L13.6569 7.2945C12.8793 7.08975 12.0616 7.09241 11.2854 7.30221C10.5091 7.51202 9.80143 7.92163 9.23284 8.49022C8.66425 9.05881 8.25464 9.76651 8.04484 10.5428C7.83504 11.319 7.83238 12.1367 8.03712 12.9143L9.43249 11.5266ZM23.9535 11.4729C23.0744 9.18301 21.5447 7.20022 19.5528 5.76879L23.2329 2.08103L22.1518 1L1.76562 21.3862L2.84665 22.4672L6.75676 18.5571C8.50024 19.5796 10.4783 20.1342 12.4992 20.1672C14.9982 20.0732 17.4149 19.249 19.4506 17.7965C21.4863 16.344 23.0518 14.3268 23.9535 11.9943C24.0144 11.8258 24.0144 11.6414 23.9535 11.4729ZM15.566 11.7336C15.5628 12.2704 15.4187 12.7969 15.1482 13.2605C14.8777 13.7242 14.4903 14.1087 14.0246 14.3757C13.559 14.6426 13.0314 14.7827 12.4946 14.7819C11.9579 14.7811 11.4307 14.6394 10.9659 14.371L15.1366 10.2002C15.4123 10.6646 15.5604 11.1936 15.566 11.7336ZM12.4992 18.6338C10.8908 18.6057 9.31281 18.1902 7.89912 17.4224L9.8465 15.475C10.7323 16.0897 11.8058 16.3736 12.8796 16.2774C13.9534 16.1811 14.9593 15.7107 15.7217 14.9484C16.484 14.186 16.9544 13.1801 17.0507 12.1063C17.1469 11.0325 16.8629 9.95899 16.2483 9.07321L18.4487 6.87282C20.208 8.08034 21.5837 9.76739 22.4125 11.7336C20.8561 15.6207 16.5627 18.6338 12.4992 18.6338Z" fill="#1E2940"/>
</svg>
