<svg width="24" height="24" viewBox="0 0 24 24" fill="none" xmlns="http://www.w3.org/2000/svg">
<path d="M6.93923 13.6C8.67469 13.6 10.0756 12.1707 10.0756 10.4C10.0756 8.62933 8.67469 7.2 6.93923 7.2C5.20378 7.2 3.80287 8.62933 3.80287 10.4C3.80287 12.1707 5.20378 13.6 6.93923 13.6ZM6.93923 9.33333C7.51423 9.33333 7.98469 9.81333 7.98469 10.4C7.98469 10.9867 7.51423 11.4667 6.93923 11.4667C6.36423 11.4667 5.89378 10.9867 5.89378 10.4C5.89378 9.81333 6.36423 9.33333 6.93923 9.33333ZM19.4847 6.13333H11.121V14.6667H2.75741V4H0.666504V20H2.75741V16.8H21.5756V20H23.6665V10.4C23.6665 8.04267 21.7951 6.13333 19.4847 6.13333ZM21.5756 14.6667H13.212V8.26667H19.4847C20.6347 8.26667 21.5756 9.22667 21.5756 10.4V14.6667Z" fill="#002160"/>
</svg>
