<svg width="39" height="46" viewBox="0 0 39 46" fill="none" xmlns="http://www.w3.org/2000/svg">
<g clip-path="url(#clip0_624_7293)">
<path d="M19.8889 28.5H21.1111V21.7778H19.8889V28.5ZM20.5 20.0386C20.7135 20.0386 20.8923 19.9664 21.0366 19.8222C21.1808 19.678 21.2525 19.4991 21.2517 19.2857C21.2509 19.0722 21.1787 18.8937 21.0353 18.7503C20.8919 18.6069 20.7135 18.5348 20.5 18.534C20.2865 18.5332 20.1081 18.6053 19.9647 18.7503C19.8213 18.8954 19.7491 19.0742 19.7483 19.2869C19.7475 19.4996 19.8196 19.678 19.9647 19.8222C20.1097 19.9664 20.2881 20.0386 20.5 20.0386ZM20.5037 34C18.9824 34 17.5524 33.7116 16.2137 33.1347C14.8749 32.557 13.7101 31.7731 12.7193 30.7831C11.7285 29.7931 10.9443 28.6296 10.3666 27.2924C9.78885 25.9553 9.5 24.5257 9.5 23.0037C9.5 21.4816 9.78885 20.0516 10.3666 18.7137C10.9434 17.3749 11.7261 16.2101 12.7144 15.2193C13.7028 14.2285 14.8668 13.4443 16.2063 12.8666C17.5459 12.2889 18.9759 12 20.4963 12C22.0168 12 23.4468 12.2889 24.7863 12.8666C26.1251 13.4434 27.2899 14.2265 28.2807 15.2157C29.2715 16.2049 30.0557 17.3688 30.6334 18.7076C31.2111 20.0463 31.5 21.4759 31.5 22.9963C31.5 24.5168 31.2116 25.9468 30.6347 27.2863C30.0578 28.6259 29.2739 29.7907 28.2831 30.7807C27.2923 31.7707 26.1287 32.5549 24.7924 33.1334C23.4561 33.712 22.0266 34.0008 20.5037 34ZM20.5 32.7778C23.2296 32.7778 25.5417 31.8306 27.4361 29.9361C29.3306 28.0417 30.2778 25.7296 30.2778 23C30.2778 20.2704 29.3306 17.9583 27.4361 16.0639C25.5417 14.1694 23.2296 13.2222 20.5 13.2222C17.7704 13.2222 15.4583 14.1694 13.5639 16.0639C11.6694 17.9583 10.7222 20.2704 10.7222 23C10.7222 25.7296 11.6694 28.0417 13.5639 29.9361C15.4583 31.8306 17.7704 32.7778 20.5 32.7778Z" fill="black"/>
</g>
<defs>
<clipPath id="clip0_624_7293">
<rect x="0.5" y="3" width="40" height="40" rx="20" fill="white"/>
</clipPath>
</defs>
</svg>
