<svg width="21" height="22" viewBox="0 0 21 22" fill="none" xmlns="http://www.w3.org/2000/svg">
<path d="M10.5056 2.82991C13.0453 2.82991 13.3461 2.84105 14.3449 2.88561C15.2732 2.92645 15.7745 3.0824 16.1087 3.21236C16.5505 3.38316 16.8698 3.5911 17.2003 3.92156C17.5345 4.25574 17.7387 4.57136 17.9095 5.01322C18.0395 5.3474 18.1954 5.85238 18.2363 6.77695C18.2808 7.77949 18.292 8.08025 18.292 10.6163C18.292 13.1561 18.2808 13.4568 18.2363 14.4557C18.1954 15.3839 18.0395 15.8852 17.9095 16.2194C17.7387 16.6613 17.5308 16.9806 17.2003 17.311C16.8661 17.6452 16.5505 17.8495 16.1087 18.0203C15.7745 18.1502 15.2695 18.3062 14.3449 18.347C13.3424 18.3916 13.0416 18.4027 10.5056 18.4027C7.9658 18.4027 7.66504 18.3916 6.66621 18.347C5.73793 18.3062 5.23666 18.1502 4.90248 18.0203C4.46062 17.8495 4.14129 17.6415 3.81083 17.311C3.47665 16.9769 3.27243 16.6613 3.10162 16.2194C2.97166 15.8852 2.81571 15.3802 2.77487 14.4557C2.73031 13.4531 2.71917 13.1524 2.71917 10.6163C2.71917 8.07654 2.73031 7.77577 2.77487 6.77695C2.81571 5.84867 2.97166 5.3474 3.10162 5.01322C3.27243 4.57136 3.48036 4.25203 3.81083 3.92156C4.14501 3.58738 4.46062 3.38316 4.90248 3.21236C5.23666 3.0824 5.74165 2.92645 6.66621 2.88561C7.66504 2.84105 7.9658 2.82991 10.5056 2.82991ZM10.5056 1.11816C7.92496 1.11816 7.60192 1.1293 6.58824 1.17386C5.57827 1.21842 4.88392 1.3818 4.28239 1.61572C3.65488 1.86079 3.1239 2.18383 2.59664 2.7148C2.06566 3.24206 1.74262 3.77304 1.49756 4.39684C1.26363 5.00208 1.10025 5.69272 1.0557 6.70269C1.01114 7.72008 1 8.04312 1 10.6237C1 13.2043 1.01114 13.5274 1.0557 14.5411C1.10025 15.551 1.26363 16.2454 1.49756 16.8469C1.74262 17.4744 2.06566 18.0054 2.59664 18.5327C3.1239 19.0599 3.65488 19.3867 4.27868 19.628C4.88392 19.862 5.57456 20.0253 6.58452 20.0699C7.5982 20.1144 7.92124 20.1256 10.5019 20.1256C13.0825 20.1256 13.4055 20.1144 14.4192 20.0699C15.4292 20.0253 16.1235 19.862 16.725 19.628C17.3488 19.3867 17.8798 19.0599 18.4071 18.5327C18.9343 18.0054 19.2611 17.4744 19.5024 16.8506C19.7364 16.2454 19.8997 15.5547 19.9443 14.5448C19.9889 13.5311 20 13.2081 20 10.6274C20 8.04683 19.9889 7.72379 19.9443 6.71011C19.8997 5.70015 19.7364 5.00579 19.5024 4.40427C19.2685 3.77304 18.9455 3.24206 18.4145 2.7148C17.8872 2.18754 17.3563 1.86079 16.7325 1.61943C16.1272 1.38551 15.4366 1.22213 14.4266 1.17757C13.4092 1.1293 13.0862 1.11816 10.5056 1.11816Z" fill="white"/>
<path d="M10.5058 5.74121C7.81007 5.74121 5.62305 7.92823 5.62305 10.624C5.62305 13.3197 7.81007 15.5067 10.5058 15.5067C13.2015 15.5067 15.3885 13.3197 15.3885 10.624C15.3885 7.92823 13.2015 5.74121 10.5058 5.74121ZM10.5058 13.7912C8.75691 13.7912 7.3385 12.3728 7.3385 10.624C7.3385 8.87508 8.75691 7.45667 10.5058 7.45667C12.2547 7.45667 13.6731 8.87508 13.6731 10.624C13.6731 12.3728 12.2547 13.7912 10.5058 13.7912Z" fill="white"/>
<path d="M16.7213 5.54813C16.7213 6.17936 16.2088 6.68806 15.5813 6.68806C14.9501 6.68806 14.4414 6.17565 14.4414 5.54813C14.4414 4.9169 14.9538 4.4082 15.5813 4.4082C16.2088 4.4082 16.7213 4.92061 16.7213 5.54813Z" fill="white"/>
</svg>
