<svg width="20" height="20" viewBox="0 0 20 20" fill="none" xmlns="http://www.w3.org/2000/svg">
<path d="M15.936 5V13.125C15.936 13.3736 15.8372 13.6121 15.6614 13.7879C15.4856 13.9637 15.2471 14.0625 14.9985 14.0625C14.7499 14.0625 14.5114 13.9637 14.3356 13.7879C14.1598 13.6121 14.061 13.3736 14.061 13.125V7.26562L5.66178 15.6633C5.48566 15.8394 5.24679 15.9383 4.99772 15.9383C4.74865 15.9383 4.50978 15.8394 4.33366 15.6633C4.15754 15.4872 4.05859 15.2483 4.05859 14.9992C4.05859 14.7501 4.15754 14.5113 4.33366 14.3352L12.7329 5.9375H6.8735C6.62486 5.9375 6.3864 5.83873 6.21059 5.66291C6.03477 5.4871 5.936 5.24864 5.936 5C5.936 4.75136 6.03477 4.5129 6.21059 4.33709C6.3864 4.16127 6.62486 4.0625 6.8735 4.0625H14.9985C15.2471 4.0625 15.4856 4.16127 15.6614 4.33709C15.8372 4.5129 15.936 4.75136 15.936 5Z" fill="#3070FE"/>
</svg>
