<svg width="25" height="24" viewBox="0 0 25 24" fill="none" xmlns="http://www.w3.org/2000/svg">
<path d="M12.3999 22C12.1666 22 11.9666 21.9333 11.7999 21.8C11.6332 21.6667 11.5082 21.4917 11.4249 21.275C11.1082 20.3417 10.7082 19.4667 10.2249 18.65C9.75824 17.8333 9.0999 16.875 8.2499 15.775C7.3999 14.675 6.70824 13.625 6.1749 12.625C5.65824 11.625 5.3999 10.4167 5.3999 9C5.3999 7.05 6.0749 5.4 7.4249 4.05C8.79157 2.68333 10.4499 2 12.3999 2C14.3499 2 15.9999 2.68333 17.3499 4.05C18.7166 5.4 19.3999 7.05 19.3999 9C19.3999 10.5167 19.1082 11.7833 18.5249 12.8C17.9582 13.8 17.2999 14.7917 16.5499 15.775C15.6499 16.975 14.9666 17.975 14.4999 18.775C14.0499 19.5583 13.6749 20.3917 13.3749 21.275C13.2916 21.5083 13.1582 21.6917 12.9749 21.825C12.8082 21.9417 12.6166 22 12.3999 22ZM12.3999 11.5C13.0999 11.5 13.6916 11.2583 14.1749 10.775C14.6582 10.2917 14.8999 9.7 14.8999 9C14.8999 8.3 14.6582 7.70833 14.1749 7.225C13.6916 6.74167 13.0999 6.5 12.3999 6.5C11.6999 6.5 11.1082 6.74167 10.6249 7.225C10.1416 7.70833 9.8999 8.3 9.8999 9C9.8999 9.7 10.1416 10.2917 10.6249 10.775C11.1082 11.2583 11.6999 11.5 12.3999 11.5Z" fill="#156BF5"/>
</svg>
