<svg width="48" height="48" viewBox="0 0 48 48" fill="none" xmlns="http://www.w3.org/2000/svg">
<g clip-path="url(#clip0_823_3241)">
<path d="M24 26C23.1667 26 22.4583 25.7083 21.875 25.125C21.2917 24.5417 21 23.8333 21 23V17C21 16.1667 21.2917 15.4583 21.875 14.875C22.4583 14.2917 23.1667 14 24 14C24.8333 14 25.5417 14.2917 26.125 14.875C26.7083 15.4583 27 16.1667 27 17V23C27 23.8333 26.7083 24.5417 26.125 25.125C25.5417 25.7083 24.8333 26 24 26ZM23 33V29.925C21.2667 29.6917 19.8333 28.9167 18.7 27.6C17.5667 26.2833 17 24.75 17 23H19C19 24.3833 19.4875 25.5625 20.4625 26.5375C21.4375 27.5125 22.6167 28 24 28C25.3833 28 26.5625 27.5125 27.5375 26.5375C28.5125 25.5625 29 24.3833 29 23H31C31 24.75 30.4333 26.2833 29.3 27.6C28.1667 28.9167 26.7333 29.6917 25 29.925V33H23Z" fill="#49454F"/>
</g>
<defs>
<clipPath id="clip0_823_3241">
<rect x="4" y="4" width="40" height="40" rx="20" fill="white"/>
</clipPath>
</defs>
</svg>
