<svg width="46" height="47" viewBox="0 0 46 47" fill="none" xmlns="http://www.w3.org/2000/svg">
<g clip-path="url(#clip0_729_3730)">
<path d="M20 28.275C19.3 28.275 18.7083 28.0454 18.225 27.5863C17.7417 27.1271 17.5 26.565 17.5 25.9C17.5 25.235 17.7417 24.6729 18.225 24.2137C18.7083 23.7546 19.3 23.525 20 23.525C20.7 23.525 21.2917 23.7546 21.775 24.2137C22.2583 24.6729 22.5 25.235 22.5 25.9C22.5 26.565 22.2583 27.1271 21.775 27.5863C21.2917 28.0454 20.7 28.275 20 28.275ZM16 33.5C15.45 33.5 14.9792 33.314 14.5875 32.9419C14.1958 32.5698 14 32.1225 14 31.6V18.3C14 17.7775 14.1958 17.3302 14.5875 16.9581C14.9792 16.586 15.45 16.4 16 16.4H17V14.5H19V16.4H27V14.5H29V16.4H30C30.55 16.4 31.0208 16.586 31.4125 16.9581C31.8042 17.3302 32 17.7775 32 18.3V31.6C32 32.1225 31.8042 32.5698 31.4125 32.9419C31.0208 33.314 30.55 33.5 30 33.5H16ZM16 31.6H30V22.1H16V31.6Z" fill="#5B6571" fill-opacity="0.5"/>
</g>
<defs>
<clipPath id="clip0_729_3730">
<rect width="46" height="46" fill="white" transform="translate(0 0.5)"/>
</clipPath>
</defs>
</svg>
