<svg width="39" height="40" viewBox="0 0 39 40" fill="none" xmlns="http://www.w3.org/2000/svg">
<g clip-path="url(#clip0_794_10156)">
<path d="M13 27.8708V26.6742H14.8469V17.1909C14.8469 15.6273 15.3192 14.2524 16.264 13.0661C17.2088 11.8799 18.4065 11.1412 19.8571 10.85V10.1966C19.8571 9.86397 19.968 9.58156 20.1897 9.34942C20.4114 9.11647 20.6808 9 20.9977 9C21.3147 9 21.5848 9.11647 21.808 9.34942C22.0312 9.58236 22.1429 9.86476 22.1429 10.1966V10.85C23.5935 11.1412 24.7912 11.8803 25.736 13.0673C26.6808 14.2544 27.1531 15.6293 27.1531 17.1921V26.673H29V27.8696L13 27.8708ZM20.9966 31C20.4876 31 20.0533 30.8105 19.6937 30.4316C19.3341 30.0527 19.1543 29.5979 19.1543 29.0674H22.8457C22.8457 29.6019 22.6648 30.0575 22.3029 30.434C21.9402 30.8105 21.5048 31 20.9966 31ZM15.9897 26.6742H26.0114V17.1921C26.0114 15.7378 25.5234 14.4997 24.5474 13.4778C23.5714 12.4559 22.389 11.9453 21 11.9461C19.611 11.9469 18.4286 12.4575 17.4526 13.4778C16.4766 14.4981 15.989 15.7362 15.9897 17.1921V26.6742Z" fill="black"/>
</g>
<defs>
<clipPath id="clip0_794_10156">
<rect x="0.5" width="40" height="40" rx="20" fill="white"/>
</clipPath>
</defs>
</svg>
