<svg width="20" height="20" viewBox="0 0 20 20" fill="none" xmlns="http://www.w3.org/2000/svg">
<path d="M10 18C9.45 18 8.97917 17.8042 8.5875 17.4125C8.19583 17.0208 8 16.55 8 16C8 15.45 8.19583 14.9792 8.5875 14.5875C8.97917 14.1958 9.45 14 10 14C10.55 14 11.0208 14.1958 11.4125 14.5875C11.8042 14.9792 12 15.45 12 16C12 16.55 11.8042 17.0208 11.4125 17.4125C11.0208 17.8042 10.55 18 10 18ZM10 12C9.45 12 8.97917 11.8042 8.5875 11.4125C8.19583 11.0208 8 10.55 8 10C8 9.45 8.19583 8.97917 8.5875 8.5875C8.97917 8.19583 9.45 8 10 8C10.55 8 11.0208 8.19583 11.4125 8.5875C11.8042 8.97917 12 9.45 12 10C12 10.55 11.8042 11.0208 11.4125 11.4125C11.0208 11.8042 10.55 12 10 12ZM10 6C9.45 6 8.97917 5.80417 8.5875 5.4125C8.19583 5.02083 8 4.55 8 4C8 3.45 8.19583 2.97917 8.5875 2.5875C8.97917 2.19583 9.45 2 10 2C10.55 2 11.0208 2.19583 11.4125 2.5875C11.8042 2.97917 12 3.45 12 4C12 4.55 11.8042 5.02083 11.4125 5.4125C11.0208 5.80417 10.55 6 10 6Z" fill="#94A3B8"/>
</svg>
