<svg width="48" height="48" viewBox="0 0 48 48" fill="none" xmlns="http://www.w3.org/2000/svg">
<g clip-path="url(#clip0_798_13116)">
<path d="M28.67 25.13C30.04 26.06 31 27.32 31 29V32H35V29C35 26.82 31.43 25.53 28.67 25.13Z" fill="white"/>
<path d="M27 24C29.21 24 31 22.21 31 20C31 17.79 29.21 16 27 16C26.53 16 26.09 16.1 25.67 16.24C26.5 17.27 27 18.58 27 20C27 21.42 26.5 22.73 25.67 23.76C26.09 23.9 26.53 24 27 24Z" fill="white"/>
<path d="M21 24C23.21 24 25 22.21 25 20C25 17.79 23.21 16 21 16C18.79 16 17 17.79 17 20C17 22.21 18.79 24 21 24ZM21 18C22.1 18 23 18.9 23 20C23 21.1 22.1 22 21 22C19.9 22 19 21.1 19 20C19 18.9 19.9 18 21 18Z" fill="white"/>
<path d="M21 25C18.33 25 13 26.34 13 29V32H29V29C29 26.34 23.67 25 21 25ZM27 30H15V29.01C15.2 28.29 18.3 27 21 27C23.7 27 26.8 28.29 27 29V30Z" fill="white"/>
</g>
<defs>
<clipPath id="clip0_798_13116">
<rect x="4" y="4" width="40" height="40" rx="20" fill="white"/>
</clipPath>
</defs>
</svg>
