<svg width="65" height="32" viewBox="0 0 65 32" fill="none" xmlns="http://www.w3.org/2000/svg">
<path d="M33 9.25C34.2375 9.25 35.25 10.2625 35.25 11.5C35.25 12.7375 34.2375 13.75 33 13.75C31.7625 13.75 30.75 12.7375 30.75 11.5C30.75 10.2625 31.7625 9.25 33 9.25ZM33 20.5C36.0375 20.5 39.525 21.9513 39.75 22.75H26.25C26.5087 21.94 29.9738 20.5 33 20.5ZM33 7C30.5138 7 28.5 9.01375 28.5 11.5C28.5 13.9862 30.5138 16 33 16C35.4862 16 37.5 13.9862 37.5 11.5C37.5 9.01375 35.4862 7 33 7ZM33 18.25C29.9963 18.25 24 19.7575 24 22.75V25H42V22.75C42 19.7575 36.0037 18.25 33 18.25Z" fill="#002160"/>
</svg>
