<svg width="24" height="24" viewBox="0 0 24 24" fill="none" xmlns="http://www.w3.org/2000/svg">
<path d="M21.298 16.5124L17.8939 13.0965C18.5404 13.3188 19.1364 13.5816 19.6818 13.8646C20.6616 14.38 21.2778 15.4007 21.298 16.5124ZM22.5 20.575L21.0758 22L18.4394 19.3724H5.13636V16.5629C5.13636 15.431 5.75253 14.3901 6.76263 13.8747C8.06566 13.2077 9.66162 12.6417 11.4798 12.4093L2.5 3.42496L3.92424 2L22.5 20.575ZM16.4192 17.3512L13.3889 14.3194C13.3283 14.3194 13.2778 14.3194 13.2172 14.3194C10.8232 14.3194 8.88384 15.0571 7.68182 15.6736C7.35859 15.8353 7.15657 16.1789 7.15657 16.5629V17.3512H16.4192ZM13.2172 5.22385C14.3283 5.22385 15.2374 6.1334 15.2374 7.24507C15.2374 8.1142 14.6919 8.85195 13.9242 9.13492L15.4192 10.6306C16.5303 9.91309 17.2576 8.65993 17.2576 7.24507C17.2576 5.01162 15.4495 3.20263 13.2172 3.20263C11.803 3.20263 10.5505 3.93027 9.83333 5.04194L11.3283 6.53765C11.6111 5.76958 12.3485 5.22385 13.2172 5.22385Z" fill="#475569"/>
</svg>
