<svg width="19" height="19" viewBox="0 0 19 19" fill="none" xmlns="http://www.w3.org/2000/svg">
<path d="M9.35697 4.2C10.2347 4.2 10.9462 3.48366 10.9462 2.6C10.9462 1.71634 10.2347 1 9.35697 1C8.47925 1 7.76773 1.71634 7.76773 2.6C7.76773 3.48366 8.47925 4.2 9.35697 4.2Z" fill="#49454F"/>
<path d="M12.448 5.888C12.1381 5.576 11.6057 5 10.5727 5C10.4059 5 9.44438 5 8.5544 5C6.36919 4.992 4.58924 3.2 4.58924 1H3C3 3.528 4.67665 5.672 6.9731 6.368V17H8.56235V12.2H10.1516V17H11.7408V7.44L14.8796 10.6L16 9.472L12.448 5.888Z" fill="#49454F"/>
</svg>
