<svg width="15" height="18" viewBox="0 0 15 18" fill="none" xmlns="http://www.w3.org/2000/svg">
<path d="M8.00001 2C11.8661 2 15 5.1339 15 8.99999C15 12.8661 11.8661 16 8.00001 16C6.76293 16.0021 5.54761 15.6747 4.47901 15.0515L1.00281 16L1.94921 12.5224C1.32548 11.4534 0.997843 10.2376 1.00001 8.99999C1.00001 5.1339 4.13391 2 8.00001 2ZM5.61441 5.71L5.47441 5.7156C5.38389 5.72183 5.29545 5.74561 5.21401 5.7856C5.13811 5.82865 5.0688 5.88241 5.00821 5.9452C4.92421 6.0243 4.87661 6.0929 4.82551 6.1594C4.56659 6.49603 4.42719 6.90932 4.42931 7.334C4.43071 7.677 4.52031 8.0109 4.66031 8.32309C4.94661 8.95449 5.41771 9.62299 6.03931 10.2425C6.18911 10.3916 6.33611 10.5414 6.49431 10.6807C7.26671 11.3607 8.1871 11.8511 9.1823 12.1129L9.5799 12.1738C9.7094 12.1808 9.8389 12.171 9.9691 12.1647C10.1729 12.1539 10.3719 12.0988 10.5522 12.003C10.6438 11.9556 10.7332 11.9042 10.8203 11.849C10.8203 11.849 10.8499 11.8289 10.9078 11.786C11.0023 11.716 11.0604 11.6663 11.1388 11.5844C11.1976 11.5237 11.2466 11.4533 11.2858 11.373C11.3404 11.2589 11.395 11.0412 11.4174 10.8599C11.4342 10.7213 11.4293 10.6457 11.4272 10.5988C11.4244 10.5239 11.3621 10.4462 11.2942 10.4133L10.8868 10.2306C10.8868 10.2306 10.2778 9.96529 9.9054 9.79589C9.86642 9.77892 9.82467 9.7692 9.7822 9.76719C9.73431 9.76218 9.68589 9.76753 9.64024 9.78287C9.59458 9.7982 9.55276 9.82318 9.5176 9.85609C9.5141 9.85469 9.4672 9.89459 8.9611 10.5078C8.93206 10.5468 8.89204 10.5763 8.84617 10.5925C8.80029 10.6087 8.75063 10.6109 8.7035 10.5988C8.65788 10.5866 8.6132 10.5712 8.5698 10.5526C8.48301 10.5162 8.45291 10.5022 8.3934 10.477C7.99152 10.3019 7.61951 10.065 7.29091 9.77489C7.20271 9.69789 7.12081 9.61389 7.03681 9.53269C6.76143 9.26894 6.52143 8.97058 6.32281 8.64509L6.28151 8.57859C6.25229 8.53365 6.22833 8.4855 6.21011 8.43509C6.18351 8.33219 6.25281 8.2496 6.25281 8.2496C6.25281 8.2496 6.42291 8.0634 6.50201 7.96259C6.57901 7.86459 6.64411 7.7694 6.68611 7.7015C6.76871 7.5685 6.79461 7.432 6.75121 7.3263C6.55521 6.8475 6.35267 6.37126 6.14361 5.8976C6.10231 5.8038 5.97981 5.7366 5.86851 5.7233C5.83071 5.71863 5.79291 5.7149 5.75511 5.7121C5.66112 5.70671 5.56687 5.70764 5.47301 5.7149L5.61441 5.71Z" fill="#919191"/>
</svg>
