<svg width="25" height="24" viewBox="0 0 25 24" fill="none" xmlns="http://www.w3.org/2000/svg">
<path d="M6.235 17.61C7.17 16.895 8.215 16.3313 9.37 15.9188C10.525 15.5063 11.735 15.3 13 15.3C14.265 15.3 15.475 15.5063 16.63 15.9188C17.785 16.3313 18.83 16.895 19.765 17.61C20.4067 16.8583 20.9063 16.0058 21.2638 15.0525C21.6213 14.0992 21.8 13.0817 21.8 12C21.8 9.56167 20.9429 7.48542 19.2288 5.77125C17.5146 4.05708 15.4383 3.2 13 3.2C10.5617 3.2 8.48542 4.05708 6.77125 5.77125C5.05708 7.48542 4.2 9.56167 4.2 12C4.2 13.0817 4.37875 14.0992 4.73625 15.0525C5.09375 16.0058 5.59333 16.8583 6.235 17.61ZM13 13.1C11.9183 13.1 11.0063 12.7288 10.2638 11.9863C9.52125 11.2438 9.15 10.3317 9.15 9.25C9.15 8.16833 9.52125 7.25625 10.2638 6.51375C11.0063 5.77125 11.9183 5.4 13 5.4C14.0817 5.4 14.9938 5.77125 15.7363 6.51375C16.4788 7.25625 16.85 8.16833 16.85 9.25C16.85 10.3317 16.4788 11.2438 15.7363 11.9863C14.9938 12.7288 14.0817 13.1 13 13.1ZM13 23C11.4783 23 10.0483 22.7113 8.71 22.1338C7.37167 21.5562 6.2075 20.7725 5.2175 19.7825C4.2275 18.7925 3.44375 17.6283 2.86625 16.29C2.28875 14.9517 2 13.5217 2 12C2 10.4783 2.28875 9.04833 2.86625 7.71C3.44375 6.37167 4.2275 5.2075 5.2175 4.2175C6.2075 3.2275 7.37167 2.44375 8.71 1.86625C10.0483 1.28875 11.4783 1 13 1C14.5217 1 15.9517 1.28875 17.29 1.86625C18.6283 2.44375 19.7925 3.2275 20.7825 4.2175C21.7725 5.2075 22.5562 6.37167 23.1338 7.71C23.7113 9.04833 24 10.4783 24 12C24 13.5217 23.7113 14.9517 23.1338 16.29C22.5562 17.6283 21.7725 18.7925 20.7825 19.7825C19.7925 20.7725 18.6283 21.5562 17.29 22.1338C15.9517 22.7113 14.5217 23 13 23Z" fill="#2C6DFB"/>
</svg>
