<svg width="16" height="29" viewBox="0 0 16 29" fill="none" xmlns="http://www.w3.org/2000/svg">
<path d="M15.359 13.2752L2.01017 0.336493C1.78744 0.120495 1.49153 -6.22404e-07 1.18381 -6.35855e-07C0.876088 -6.49306e-07 0.580176 0.120494 0.357446 0.336493L0.343073 0.351113C0.234723 0.455825 0.148447 0.581865 0.0894909 0.721567C0.0305338 0.861268 0.000130609 1.01171 0.000130603 1.16374C0.000130596 1.31577 0.0305337 1.46622 0.0894908 1.60592C0.148447 1.74562 0.234723 1.87166 0.343073 1.97637L12.9134 14.1597L0.343072 26.3382C0.234722 26.4429 0.148446 26.569 0.0894897 26.7087C0.0305326 26.8484 0.000129473 26.9988 0.000129467 27.1509C0.00012946 27.3029 0.0305326 27.4533 0.0894897 27.593C0.148446 27.7327 0.234722 27.8588 0.343072 27.9635L0.357444 27.9781C0.580175 28.1941 0.876087 28.3146 1.18381 28.3146C1.49153 28.3146 1.78744 28.1941 2.01017 27.9781L15.359 15.0394C15.4764 14.9256 15.5698 14.7887 15.6337 14.6371C15.6975 14.4855 15.7305 14.3223 15.7305 14.1573C15.7305 13.9923 15.6975 13.8291 15.6337 13.6775C15.5698 13.5259 15.4764 13.389 15.359 13.2752Z" fill="#3070FE"/>
</svg>
