<svg width="25" height="24" viewBox="0 0 25 24" fill="none" xmlns="http://www.w3.org/2000/svg">
<path d="M10.1567 11.076L8.65778 12.638C7.94 11.879 7.24333 10.9 6.76833 9.404L8.81611 8.865C9.15389 9.844 9.62889 10.515 10.1567 11.076ZM11.4444 5.4L7.22222 1L3 5.4H6.18778C6.20889 6.291 6.27222 7.094 6.38833 7.787L8.43611 7.248C8.36222 6.72 8.30944 6.093 8.29889 5.4H11.4444ZM22 5.4L17.7778 1L13.5556 5.4H16.7117C16.6061 9.448 15.3606 10.625 14.0306 11.868C13.5028 12.352 12.9644 12.88 12.5 13.573C12.1411 13.034 11.7294 12.605 11.3072 12.209L9.81889 13.76C10.8006 14.695 11.4444 15.454 11.4444 17.5V23H13.5556V17.5C13.5556 15.278 14.305 14.574 15.445 13.507C16.9017 12.143 18.6961 10.449 18.8228 5.4H22Z" fill="#002160"/>
</svg>
