<svg width="64" height="32" viewBox="0 0 64 32" fill="none" xmlns="http://www.w3.org/2000/svg">
<path d="M29.5267 15.244L28.2644 16.522C27.66 15.901 27.0733 15.1 26.6733 13.876L28.3978 13.435C28.6822 14.236 29.0822 14.785 29.5267 15.244ZM30.6111 10.6L27.0556 7L23.5 10.6H26.1844C26.2022 11.329 26.2556 11.986 26.3533 12.553L28.0778 12.112C28.0156 11.68 27.9711 11.167 27.9622 10.6H30.6111ZM39.5 10.6L35.9444 7L32.3889 10.6H35.0467C34.9578 13.912 33.9089 14.875 32.7889 15.892C32.3444 16.288 31.8911 16.72 31.5 17.287C31.1978 16.846 30.8511 16.495 30.4956 16.171L29.2422 17.44C30.0689 18.205 30.6111 18.826 30.6111 20.5V25H32.3889V20.5C32.3889 18.682 33.02 18.106 33.98 17.233C35.2067 16.117 36.7178 14.731 36.8244 10.6H39.5Z" fill="#002160"/>
</svg>
