<svg width="78" height="71" viewBox="0 0 78 71" fill="none" xmlns="http://www.w3.org/2000/svg">
<path d="M0.810547 24C0.810547 18.329 0.811609 14.1261 1.24543 10.8994C1.67731 7.68704 2.52984 5.51725 4.17882 3.86827C5.82779 2.2193 7.99759 1.36677 11.2099 0.934881C14.4366 0.501062 18.6396 0.5 24.3105 0.5H53.3064C58.9774 0.5 63.1804 0.501062 66.4071 0.934881C69.6194 1.36677 71.7892 2.2193 73.4382 3.86827C75.0871 5.51725 75.9397 7.68704 76.3716 10.8994C76.8054 14.1261 76.8064 18.329 76.8064 24V46.8837C76.8064 52.5547 76.8054 56.7576 76.3716 59.9844C75.9397 63.1967 75.0871 65.3665 73.4382 67.0154C71.7892 68.6644 69.6194 69.517 66.4071 69.9488C63.1804 70.3827 58.9774 70.3837 53.3064 70.3837H24.3106C18.6396 70.3837 14.4366 70.3827 11.2099 69.9488C7.99759 69.517 5.82779 68.6644 4.17882 67.0154C2.52984 65.3665 1.67731 63.1967 1.24543 59.9844C0.811609 56.7577 0.810547 52.5547 0.810547 46.8837V24Z" stroke="#79747E"/>
<g clip-path="url(#clip0_798_12208)">
<path d="M57.2978 31.9646L40.9822 31.9639C40.2617 31.9639 39.6777 32.5478 39.6777 33.2682V38.4804C39.6777 39.2007 40.2617 39.7847 40.9821 39.7847H50.1701C49.164 42.3957 47.2862 44.5824 44.8904 45.9718L48.8081 52.7537C55.0927 49.1191 58.8081 42.7418 58.8081 35.6029C58.8081 34.5864 58.7332 33.8598 58.5834 33.0416C58.4695 32.42 57.9298 31.9646 57.2978 31.9646Z" fill="#167EE6"/>
<path d="M38.8077 47.616C34.3113 47.616 30.386 45.1593 28.2778 41.5239L21.4961 45.4328C24.9473 51.4142 31.4124 55.4421 38.8077 55.4421C42.4356 55.4421 45.8588 54.4653 48.8077 52.7631V52.7538L44.89 45.9717C43.098 47.0111 41.0242 47.616 38.8077 47.616Z" fill="#12B347"/>
<path d="M48.8086 52.763V52.7537L44.8909 45.9717C43.0988 47.011 41.0252 47.616 38.8086 47.616V55.4421C42.4365 55.4421 45.8598 54.4653 48.8086 52.763Z" fill="#0F993E"/>
<path d="M26.6347 35.4419C26.6347 33.2255 27.2395 31.152 28.2787 29.3601L21.497 25.4512C19.7853 28.3908 18.8086 31.8047 18.8086 35.4419C18.8086 39.0791 19.7853 42.493 21.497 45.4326L28.2787 41.5237C27.2395 39.7317 26.6347 37.6582 26.6347 35.4419Z" fill="#FFD500"/>
<path d="M38.8077 23.268C41.7398 23.268 44.4331 24.3099 46.5368 26.0429C47.0558 26.4704 47.8101 26.4396 48.2855 25.9642L51.9784 22.2712C52.5178 21.7318 52.4794 20.8489 51.9032 20.3491C48.3786 17.2913 43.7927 15.4419 38.8077 15.4419C31.4124 15.4419 24.9473 19.4698 21.4961 25.4512L28.2778 29.3601C30.386 25.7247 34.3113 23.268 38.8077 23.268Z" fill="#FF4B26"/>
<path d="M46.5377 26.0429C47.0566 26.4704 47.811 26.4396 48.2863 25.9642L51.9793 22.2712C52.5186 21.7318 52.4802 20.8489 51.9041 20.3491C48.3795 17.2913 43.7935 15.4419 38.8086 15.4419V23.268C41.7406 23.268 44.434 24.3099 46.5377 26.0429Z" fill="#D93F21"/>
</g>
<defs>
<clipPath id="clip0_798_12208">
<rect width="40" height="40" fill="white" transform="translate(18.8086 15.4419)"/>
</clipPath>
</defs>
</svg>
