<svg width="78" height="71" viewBox="0 0 78 71" fill="none" xmlns="http://www.w3.org/2000/svg">
<path d="M1.00195 24C1.00195 18.329 1.00301 14.1261 1.43683 10.8994C1.86872 7.68704 2.72125 5.51725 4.37022 3.86827C6.0192 2.2193 8.18899 1.36677 11.4013 0.934881C14.628 0.501062 18.831 0.5 24.502 0.5H53.4978C59.1688 0.5 63.3718 0.501062 66.5985 0.934881C69.8108 1.36677 71.9806 2.2193 73.6296 3.86827C75.2785 5.51725 76.1311 7.68704 76.563 10.8994C76.9968 14.1261 76.9978 18.329 76.9978 24V46.8837C76.9978 52.5547 76.9968 56.7576 76.563 59.9844C76.1311 63.1967 75.2785 65.3665 73.6296 67.0154C71.9806 68.6644 69.8108 69.517 66.5985 69.9488C63.3718 70.3827 59.1688 70.3837 53.4978 70.3837H24.502C18.831 70.3837 14.628 70.3827 11.4013 69.9488C8.18899 69.517 6.0192 68.6644 4.37022 67.0154C2.72125 65.3665 1.86872 63.1967 1.43683 59.9844C1.00301 56.7577 1.00195 52.5547 1.00195 46.8837V24Z" stroke="#79747E"/>
<g clip-path="url(#clip0_798_12216)">
<path d="M62 35.4419C62 46.9221 53.5888 56.4375 42.5938 58.1625V42.0903H47.9529L48.9727 35.4419H42.5938V31.1276C42.5938 29.3083 43.485 27.5356 46.342 27.5356H49.2422V21.8755C49.2422 21.8755 46.6098 21.4263 44.0932 21.4263C38.8401 21.4263 35.4062 24.6103 35.4062 30.3747V35.4419H29.5664V42.0903H35.4062V58.1625C24.4112 56.4375 16 46.9221 16 35.4419C16 22.7398 26.2979 12.4419 39 12.4419C51.7021 12.4419 62 22.7398 62 35.4419Z" fill="#1877F2"/>
<path d="M47.9529 42.0903L48.9727 35.4419H42.5938V31.1275C42.5938 29.3086 43.4848 27.5356 46.3419 27.5356H49.2422V21.8755C49.2422 21.8755 46.6101 21.4263 44.0937 21.4263C38.84 21.4263 35.4062 24.6103 35.4062 30.3747V35.4419H29.5664V42.0903H35.4062V58.1624C36.5773 58.3461 37.7774 58.4419 39 58.4419C40.2226 58.4419 41.4227 58.3461 42.5938 58.1624V42.0903H47.9529Z" fill="white"/>
</g>
<defs>
<clipPath id="clip0_798_12216">
<rect width="46" height="46" fill="white" transform="translate(16 12.4419)"/>
</clipPath>
</defs>
</svg>
