<svg width="78" height="71" viewBox="0 0 78 71" fill="none" xmlns="http://www.w3.org/2000/svg">
<path d="M1.19336 24C1.19336 18.329 1.19442 14.1261 1.62824 10.8994C2.06013 7.68704 2.91266 5.51725 4.56163 3.86827C6.21061 2.2193 8.3804 1.36677 11.5927 0.934881C14.8194 0.501062 19.0224 0.5 24.6934 0.5H53.6892C59.3602 0.5 63.5632 0.501062 66.7899 0.934881C70.0022 1.36677 72.172 2.2193 73.821 3.86827C75.4699 5.51725 76.3225 7.68704 76.7544 10.8994C77.1882 14.1261 77.1892 18.329 77.1892 24V46.8837C77.1892 52.5547 77.1882 56.7576 76.7544 59.9844C76.3225 63.1967 75.4699 65.3665 73.821 67.0154C72.172 68.6644 70.0022 69.517 66.7899 69.9488C63.5632 70.3827 59.3602 70.3837 53.6893 70.3837H24.6934C19.0224 70.3837 14.8194 70.3827 11.5927 69.9488C8.3804 69.517 6.21061 68.6644 4.56163 67.0154C2.91266 65.3665 2.06013 63.1967 1.62824 59.9844C1.19442 56.7577 1.19336 52.5547 1.19336 46.8837V24Z" stroke="#79747E"/>
<g clip-path="url(#clip0_798_12221)">
<path d="M48.0447 12.4419C48.1518 12.4419 48.2588 12.4419 48.3719 12.4419C48.6345 15.6859 47.3963 18.1098 45.8915 19.8652C44.4149 21.6084 42.3929 23.2991 39.1227 23.0425C38.9045 19.845 40.1447 17.6008 41.6476 15.8495C43.0413 14.2174 45.5965 12.7651 48.0447 12.4419Z" fill="black"/>
<path d="M57.9435 46.207C57.9435 46.2393 57.9435 46.2676 57.9435 46.2978C57.0245 49.0813 55.7135 51.4669 54.1137 53.6807C52.6533 55.6906 50.8637 58.3952 47.6681 58.3952C44.9069 58.3952 43.0728 56.6197 40.2428 56.5712C37.2493 56.5228 35.603 58.0559 32.866 58.4417C32.5529 58.4417 32.2399 58.4417 31.9328 58.4417C29.923 58.1508 28.301 56.5591 27.1193 55.125C23.6349 50.8871 20.9424 45.4131 20.4414 38.408C20.4414 37.7212 20.4414 37.0364 20.4414 36.3497C20.6535 31.3362 23.0895 27.26 26.3275 25.2845C28.0364 24.2341 30.3855 23.3393 33.0014 23.7392C34.1224 23.9129 35.2677 24.2967 36.2716 24.6765C37.223 25.0421 38.4128 25.6905 39.5399 25.6561C40.3034 25.6339 41.0629 25.236 41.8325 24.9552C44.0868 24.1412 46.2966 23.208 49.2093 23.6463C52.7099 24.1755 55.1944 25.7309 56.7296 28.1305C53.7683 30.0151 51.4272 32.8552 51.8272 37.705C52.1827 42.1105 54.744 44.688 57.9435 46.207Z" fill="black"/>
</g>
<defs>
<clipPath id="clip0_798_12221">
<rect width="46" height="46" fill="white" transform="translate(16.1914 12.4419)"/>
</clipPath>
</defs>
</svg>
