<svg width="88" height="18" viewBox="0 0 88 18" fill="none" xmlns="http://www.w3.org/2000/svg">
<g clip-path="url(#clip0_622_6405)">
<path d="M4.36875 16.4999L5.5875 11.2312L1.5 7.68744L6.9 7.21869L9 2.24994L11.1 7.21869L16.5 7.68744L12.4125 11.2312L13.6313 16.4999L9 13.7062L4.36875 16.4999Z" fill="#FF9901"/>
<path d="M22.1259 16.4999L23.2769 11.2312L19.4165 7.68744L24.5165 7.21869L26.4998 2.24994L28.4832 7.21869L33.5832 7.68744L29.7228 11.2312L30.8738 16.4999L26.4998 13.7062L22.1259 16.4999Z" fill="#FF9901"/>
<path d="M39.3688 16.4999L40.5875 11.2312L36.5 7.68744L41.9 7.21869L44 2.24994L46.1 7.21869L51.5 7.68744L47.4125 11.2312L48.6313 16.4999L44 13.7062L39.3688 16.4999Z" fill="#FF9901"/>
<path d="M57.1259 16.4999L58.2769 11.2312L54.4165 7.68744L59.5165 7.21869L61.4998 2.24994L63.4832 7.21869L68.5832 7.68744L64.7228 11.2312L65.8738 16.4999L61.4998 13.7062L57.1259 16.4999Z" fill="#FF9901"/>
<path d="M74.3688 16.4999L75.5875 11.2312L71.5 7.68744L76.9 7.21869L79 2.24994L81.1 7.21869L86.5 7.68744L82.4125 11.2312L83.6313 16.4999L79 13.7062L74.3688 16.4999Z" fill="#FF9901"/>
</g>
<defs>
<clipPath id="clip0_622_6405">
<rect width="88" height="18" fill="white"/>
</clipPath>
</defs>
</svg>
