<svg width="26" height="25" viewBox="0 0 26 25" fill="none" xmlns="http://www.w3.org/2000/svg">
<path d="M13 8.36364C13.9644 8.36364 14.8893 8.74675 15.5713 9.4287C16.2532 10.1107 16.6364 11.0356 16.6364 12C16.6364 12.9644 16.2532 13.8893 15.5713 14.5713C14.8893 15.2532 13.9644 15.6364 13 15.6364C12.0356 15.6364 11.1107 15.2532 10.4287 14.5713C9.74675 13.8893 9.36364 12.9644 9.36364 12C9.36364 11.0356 9.74675 10.1107 10.4287 9.4287C11.1107 8.74675 12.0356 8.36364 13 8.36364ZM4.86364 12.9091H3V11.0909H4.86364C5.27273 7.3 8.3 4.27273 12.0909 3.86364V2H13.9091V3.86364C17.7 4.27273 20.7273 7.3 21.1364 11.0909H23V12.9091H21.1364C20.7273 16.7 17.7 19.7273 13.9091 20.1364V22H12.0909V20.1364C8.3 19.7273 5.27273 16.7 4.86364 12.9091ZM13 5.63636C11.3123 5.63636 9.69364 6.30682 8.50023 7.50023C7.30682 8.69364 6.63636 10.3123 6.63636 12C6.63636 13.6877 7.30682 15.3064 8.50023 16.4998C9.69364 17.6932 11.3123 18.3636 13 18.3636C14.6877 18.3636 16.3064 17.6932 17.4998 16.4998C18.6932 15.3064 19.3636 13.6877 19.3636 12C19.3636 10.3123 18.6932 8.69364 17.4998 7.50023C16.3064 6.30682 14.6877 5.63636 13 5.63636Z" fill="#204EA5"/>
</svg>
