<svg width="161" height="27" viewBox="0 0 161 27" fill="none" xmlns="http://www.w3.org/2000/svg">
<path fill-rule="evenodd" clip-rule="evenodd" d="M133.014 26.7218C131.762 26.7218 130.771 26.4506 130.041 25.9083C129.97 25.8574 129.901 25.8045 129.833 25.7495L129.853 25.8144C129.708 25.8507 129.567 25.8861 129.43 25.9206C126.61 26.6298 125.386 26.9376 121.999 25.9082C121.103 25.4492 120.383 24.8234 119.841 24.0308C118.944 25.0321 117.921 25.6995 116.774 26.0333C115.627 26.3879 114.438 26.5653 113.207 26.5653C111.643 26.5653 110.224 26.1585 108.952 25.345C107.679 24.5524 106.667 23.4781 105.916 22.1221C105.186 20.7454 104.821 19.2121 104.821 17.5225C104.821 15.9371 105.113 14.5081 105.697 13.2358C106.282 11.9424 107.074 10.8369 108.076 9.919C109.098 9.00122 110.255 8.3024 111.549 7.82254C112.842 7.32191 114.198 7.0716 115.616 7.0716C116.805 7.0716 117.974 7.23857 119.121 7.57223C119.204 7.13418 119.277 6.69613 119.34 6.25808L124.69 7.16554C124.544 7.56178 124.398 8.15634 124.252 8.94896C124.106 9.74171 123.981 10.6283 123.877 11.6086C123.793 12.5891 123.72 13.5695 123.658 14.55C123.595 15.5303 123.564 16.4169 123.564 17.2096C123.564 17.8563 123.606 18.4924 123.689 19.1183C123.793 19.7232 124.002 20.2238 124.315 20.6202C125.276 21.7729 126.456 20.7682 127.386 19.9769C127.509 19.8728 127.627 19.7724 127.739 19.6811C127.689 18.7179 127.663 17.7168 127.663 16.6778C127.663 15.301 127.715 13.872 127.82 12.3911C127.924 10.9099 128.158 8.60484 128.352 7.19689C128.498 6.13305 128.654 5.01709 128.821 3.84887C128.988 2.65987 129.176 1.4083 129.384 0.0941467L134.767 0.563418C134.516 1.64816 134.296 2.7329 134.109 3.81764C133.921 4.88148 133.754 5.91396 133.608 6.91535C134.776 6.91535 135.872 6.94657 136.895 7.00915C137.937 7.05083 138.897 7.13431 139.773 7.25947L139.147 12.172C138.417 12.0886 137.656 12.0365 136.862 12.0156C136.091 11.9739 135.308 11.953 134.516 11.953C134.036 11.953 133.556 11.9635 133.076 11.9842C132.951 13.507 132.868 14.8109 132.826 15.8955C132.805 16.9802 132.795 17.752 132.795 18.211C132.795 19.3583 132.857 20.1823 132.983 20.6829C133.129 21.1836 133.358 21.4339 133.671 21.4339C136.373 21.4339 139.731 17.1985 141.085 15.0425C141.162 14.6951 141.258 14.3432 141.368 13.9866C141.744 12.7559 142.348 11.6086 143.183 10.5448C144.017 9.48094 145.113 8.61516 146.469 7.9477C147.845 7.2801 149.513 6.94644 151.475 6.94644C152.893 6.94644 154.083 7.10282 155.042 7.41572C156.022 7.72861 156.815 8.13544 157.42 8.63607C158.045 9.1367 158.516 9.66868 158.828 10.2319C159.162 10.7951 159.381 11.3374 159.485 11.8589C159.61 12.3596 159.672 12.7767 159.672 13.1105C159.672 15.1339 158.817 16.6984 157.107 17.804C155.418 18.8888 153.019 19.4311 149.91 19.4311C149.201 19.4311 148.523 19.3999 147.876 19.3373C147.25 19.2747 146.666 19.2017 146.125 19.1182C146.521 20.1613 147.178 20.933 148.096 21.4337C149.014 21.9135 149.962 22.1533 150.943 22.1533C152.361 22.1533 153.613 21.903 154.698 21.4024C155.782 20.8809 156.804 20.0882 157.764 19.0244L160.548 23.0294C159.881 23.5719 159.131 24.1351 158.296 24.7192C157.483 25.3032 156.482 25.783 155.292 26.1585C154.103 26.5547 152.633 26.7529 150.88 26.7529C148.878 26.7529 147.115 26.3567 145.593 25.5639C144.243 24.8705 143.154 23.9243 142.327 22.7257C140.237 24.6744 135.355 26.7218 133.014 26.7218ZM151.569 11.6398C150.338 11.6398 149.253 11.9529 148.314 12.5787C147.376 13.2044 146.687 14.0284 146.249 15.0506C146.77 15.1339 147.282 15.207 147.782 15.2695C148.303 15.3112 148.815 15.3321 149.315 15.3321C149.775 15.3321 150.296 15.2904 150.88 15.207C151.485 15.1235 152.069 14.9983 152.633 14.8315C153.217 14.6647 153.697 14.456 154.072 14.2057C154.447 13.9345 154.635 13.6216 154.635 13.267C154.635 13.1001 154.552 12.8915 154.384 12.6412C154.218 12.3909 153.915 12.1614 153.477 11.9529C153.039 11.7442 152.403 11.6398 151.569 11.6398ZM111.173 20.5576C110.464 19.9526 110.057 19.1495 109.953 18.1483C109.932 18.044 109.922 17.9292 109.922 17.804V17.4286C109.922 16.3856 110.172 15.4677 110.673 14.6751C111.173 13.8824 111.862 13.267 112.738 12.829C113.635 12.37 114.646 12.1406 115.773 12.1406C116.732 12.1406 117.65 12.3074 118.526 12.6412C118.464 13.3922 118.412 14.1536 118.37 14.9254C118.328 15.6973 118.307 16.4482 118.307 17.1783C118.307 17.533 118.318 17.8771 118.339 18.2109C117.88 19.2121 117.296 20.0049 116.586 20.5889C115.877 21.1521 114.991 21.4337 113.927 21.4337C112.821 21.4337 111.903 21.1418 111.173 20.5576Z" fill="#3070FE"/>
<path d="M76.817 26.6904C76.7963 26.3775 76.7754 25.8561 76.7544 25.1259C76.7337 24.4167 76.7128 23.5615 76.6919 22.5602C76.6711 21.559 76.6606 20.4847 76.6606 19.3373C76.6606 18.1691 76.6606 17.001 76.6606 15.8328C76.6606 14.5396 76.6606 13.3088 76.6606 12.1407C76.6815 10.9724 76.6919 9.96073 76.6919 9.10553C76.7128 8.2502 76.7232 7.63487 76.7232 7.25939L82.0112 7.16546C81.9695 7.74957 81.9382 8.45884 81.9174 9.29327C82.4597 8.5631 83.0855 7.98944 83.7947 7.57229C84.504 7.15501 85.3175 6.9465 86.2353 6.9465C87.341 6.9465 88.2484 7.26985 88.9576 7.91641C89.6877 8.5631 90.2822 9.40798 90.7411 10.4509C92.243 8.11459 94.0891 6.9465 96.2794 6.9465C97.5102 6.9465 98.5219 7.21759 99.3145 7.76003C100.128 8.28156 100.764 8.9907 101.223 9.8877C101.682 10.7847 102.016 11.7964 102.225 12.9228C102.454 14.0492 102.6 15.207 102.663 16.396C102.725 17.585 102.756 18.7323 102.756 19.838C102.756 21.1521 102.736 22.3516 102.694 23.4363C102.652 24.5211 102.642 25.5535 102.663 26.534H97.2494C97.2494 26.0334 97.2494 25.3972 97.2494 24.6253C97.2494 23.8744 97.2494 23.113 97.2494 22.3411C97.2703 21.5485 97.2808 20.8705 97.2808 20.3072C97.2808 19.7233 97.2808 19.379 97.2808 19.2748C97.2808 18.0231 97.2494 16.8445 97.1869 15.739C97.1243 14.6334 96.9679 13.7364 96.7174 13.048C96.4671 12.3596 96.0604 12.0155 95.4972 12.0155C94.9548 12.0155 94.4751 12.2761 94.0579 12.7977C93.6406 13.3192 93.2652 13.9971 92.9314 14.8316C92.6185 15.666 92.3474 16.5525 92.1178 17.4912C92.1597 18.3047 92.1909 19.1183 92.2118 19.9318C92.2325 20.7245 92.243 21.4964 92.243 22.2473C92.243 23.1025 92.2325 23.843 92.2118 24.4688C92.2118 25.1155 92.2118 25.8039 92.2118 26.534H86.955C86.955 24.8444 86.9446 23.3528 86.9237 22.0596C86.9029 20.7662 86.8611 19.5146 86.7985 18.3047C86.6943 16.1353 86.4649 14.5499 86.1102 13.5486C85.7765 12.5265 85.3071 12.0155 84.7022 12.0155C84.0346 12.0155 83.4714 12.4222 83.0124 13.2357C82.5536 14.0285 82.1782 14.9984 81.886 16.1457C81.9069 17.8146 81.9486 19.5563 82.0112 21.3711C82.0738 23.186 82.1572 24.9382 82.2615 26.6278L76.817 26.6904Z" fill="#3070FE"/>
<path fill-rule="evenodd" clip-rule="evenodd" d="M58.6688 26.6906C58.084 26.7829 56.7439 26.739 55.8465 26.7096C55.5273 26.6992 55.2641 26.6906 55.1108 26.6906C54.1095 26.6906 53.2856 26.5028 52.6389 26.1274C52.0131 25.7519 51.5124 25.2513 51.137 24.6253C50.4903 25.3138 49.6872 25.8457 48.7276 26.2212C47.789 26.6175 46.6625 26.8157 45.3484 26.8157C44.0133 26.8157 42.9077 26.5759 42.0316 26.096C41.1764 25.6371 40.488 25.001 39.9665 24.1873C39.4659 23.3738 39.0904 22.4664 38.8401 21.4652C38.6105 20.443 38.4541 19.3895 38.3707 18.3049C38.3081 17.1993 38.2769 16.1354 38.2769 15.1133C38.2769 13.9452 38.3081 12.756 38.3707 11.5461C38.4541 10.3364 38.5375 9.01177 38.621 7.57233L44.347 7.22821L44.0654 9.1995C43.9403 10.0756 43.8256 11.0769 43.7212 12.2033C43.6169 13.3297 43.5648 14.5084 43.5648 15.739C43.5648 17.7625 43.7421 19.2644 44.0967 20.2448C44.4514 21.2044 44.9832 21.6842 45.6925 21.6842C47.111 21.6842 48.154 20.6515 48.8216 18.5864C49.489 16.5213 49.8228 13.2567 49.8228 8.79268V7.35337L52.4825 7.29079L55.7054 7.22821C55.4132 9.18905 55.1943 10.9934 55.0482 12.6413C54.9021 14.2893 54.8083 15.6765 54.7667 16.8029C54.7249 17.9085 54.7041 18.649 54.7041 19.0245C54.7041 19.9841 54.7874 20.6724 54.9544 21.0896C55.1212 21.486 55.4132 21.6842 55.8305 21.6842C56.039 21.6842 56.2686 21.6425 56.5189 21.559C56.7014 21.4982 57.7908 20.7806 58.4971 20.3152C58.6488 20.2154 58.7828 20.1271 58.8864 20.0594C58.9081 18.8171 58.919 17.5854 58.919 16.3648C58.8982 14.8213 58.8669 13.2985 58.8252 11.7965C58.8043 10.2738 58.7521 8.80313 58.6687 7.38459L63.9254 7.22821C63.9463 8.00005 63.9775 8.79267 64.0193 9.6062C64.6868 8.77177 65.4586 8.10431 66.3347 7.60368C67.2318 7.08215 68.2539 6.82138 69.4011 6.82138C69.8393 6.82138 70.4025 6.88396 71.0909 7.00912C71.7792 7.13427 72.4781 7.37414 73.1873 7.72884L72.5928 13.0168C72.0712 12.7039 71.508 12.485 70.9031 12.3598C70.319 12.2137 69.8288 12.1407 69.4325 12.1407C68.0974 12.1407 66.9605 12.7456 66.0219 13.9555C65.1039 15.1445 64.4782 16.8029 64.1445 18.9307C64.1445 20.3908 64.1236 21.7884 64.0819 23.1235C64.061 24.4376 64.0089 25.6267 63.9254 26.6906H58.6688Z" fill="#3070FE"/>
<path fill-rule="evenodd" clip-rule="evenodd" d="M7.22798 25.8143C7.95808 26.3566 8.94892 26.6278 10.2005 26.6278C12.4225 26.6278 16.5859 24.8671 18.7861 23.0227C18.9659 23.284 19.1591 23.5367 19.3659 23.7804C20.1794 24.7192 21.2016 25.4597 22.4322 26.002C23.6839 26.5445 25.144 26.8156 26.8129 26.8156C29.9627 26.8156 32.4034 25.9499 34.1347 24.2185C35.8662 22.4663 36.7318 20.0153 36.7318 16.8654C36.7318 15.4469 36.471 14.1327 35.9495 12.9228C35.4489 11.7129 34.7397 10.6595 33.8218 9.76254C32.9041 8.86554 31.8298 8.16685 30.599 7.66609C29.3683 7.16546 28.0332 6.91515 26.5939 6.91515C25.2171 6.91515 23.9446 7.16546 22.7765 7.66609C21.6083 8.14595 20.5862 8.82386 19.71 9.69996C18.8548 10.5761 18.1769 11.6087 17.6763 12.7977C17.4407 13.3712 17.263 13.9698 17.1431 14.5936C17.1271 14.6226 17.1112 14.652 17.0952 14.6813C15.8573 16.9536 14.3825 19.6608 12.0466 20.9956C11.6086 21.225 11.2122 21.3399 10.8576 21.3399C10.5447 21.3399 10.3153 21.0896 10.1692 20.5889C10.0441 20.0882 9.9815 19.2643 9.9815 18.117C9.9815 17.658 9.99192 16.8862 10.0128 15.8014C10.0545 14.7167 10.1379 13.413 10.2631 11.8902C10.7429 11.8694 11.2227 11.859 11.7025 11.859C12.4951 11.859 13.2774 11.8798 14.0492 11.9216C14.8419 11.9423 15.6033 11.9946 16.3333 12.078L16.9592 7.16546C16.083 7.0403 15.1235 6.95682 14.0805 6.91515C13.0583 6.85257 11.9632 6.82121 10.795 6.82121C10.9411 5.81995 11.1079 4.78747 11.2957 3.7235C11.4834 2.63889 11.7025 1.55415 11.9528 0.46941L6.57089 0C6.36229 1.31429 6.17454 2.56586 6.00767 3.75486C5.84079 4.92295 5.68435 6.03904 5.53833 7.10288C3.57749 7.31152 1.73138 7.64519 0 8.10414L0.969981 13.0166C2.2633 12.7246 3.60878 12.4848 5.00639 12.297C4.90209 13.778 4.84994 15.207 4.84994 16.5837C4.84994 17.9188 4.89167 19.1913 4.97511 20.4012C5.0794 21.611 5.29843 22.6852 5.6322 23.6241C5.96596 24.5627 6.49788 25.2928 7.22798 25.8143ZM30.2548 20.4638C29.4621 21.319 28.3043 21.7467 26.7817 21.7467C25.676 21.7467 24.7686 21.5171 24.0594 21.0583C23.3502 20.5785 22.8286 19.9631 22.4948 19.2122C22.1819 18.4612 22.0255 17.6894 22.0255 16.8966C22.0255 15.9998 22.2342 15.1861 22.6513 14.4561C23.0894 13.7051 23.663 13.1106 24.3723 12.6725C25.0814 12.2136 25.8638 11.9842 26.7191 11.9842C28.1375 11.9842 29.2848 12.4222 30.1609 13.2983C31.037 14.1744 31.4751 15.3322 31.4751 16.7715C31.4751 18.3778 31.0684 19.6084 30.2548 20.4638Z" fill="#3070FE"/>
</svg>
