<svg width="24" height="25" viewBox="0 0 24 25" fill="none" xmlns="http://www.w3.org/2000/svg">
<path d="M20.9925 20.57L19.5655 21.998L13.1235 15.556L14.5535 14.128L20.9925 20.57ZM13.1125 4C10.5325 4 7.9525 4.98 5.9725 6.95L5.9625 6.96C2.0125 10.91 2.0125 17.32 5.9625 21.27L20.2625 6.96C18.2925 4.99 15.7025 4 13.1125 4ZM6.1325 18.27C5.3925 17.03 4.9925 15.61 4.9925 14.12C4.9925 13.19 5.1525 12.3 5.4525 11.45C5.6425 13.36 6.3425 15.24 7.5225 16.89L6.1325 18.27ZM8.9725 15.43C7.6225 13.38 7.1125 10.93 7.5925 8.6C8.1725 8.48 8.7525 8.42 9.3425 8.42C11.1425 8.42 12.8925 8.97 14.4225 9.98L8.9725 15.43ZM10.4425 6.46C11.2925 6.16 12.1825 6 13.1125 6C14.6025 6 16.0225 6.4 17.2625 7.14L15.8725 8.53C14.2225 7.35 12.3525 6.65 10.4425 6.46Z" fill="#A8ADBD"/>
</svg>
