<svg width="47" height="46" viewBox="0 0 47 46" fill="none" xmlns="http://www.w3.org/2000/svg">
<rect width="47" height="46" rx="23" fill="#3070FE"/>
<g clip-path="url(#clip0_624_7298)">
<path fill-rule="evenodd" clip-rule="evenodd" d="M23.4996 24.65C24.6666 24.65 25.7857 24.1864 26.6109 23.3613C27.436 22.5361 27.8996 21.417 27.8996 20.25C27.8996 19.0831 27.436 17.9639 26.6109 17.1387C25.7857 16.3136 24.6666 15.85 23.4996 15.85C22.3327 15.85 21.2135 16.3136 20.3883 17.1387C19.5632 17.9639 19.0996 19.0831 19.0996 20.25C19.0996 21.417 19.5632 22.5361 20.3883 23.3613C21.2135 24.1864 22.3327 24.65 23.4996 24.65ZM23.4996 23.55C23.933 23.55 24.3621 23.4646 24.7625 23.2988C25.1628 23.133 25.5266 22.8899 25.8331 22.5835C26.1395 22.277 26.3826 21.9132 26.5484 21.5129C26.7143 21.1125 26.7996 20.6834 26.7996 20.25C26.7996 19.8166 26.7143 19.3875 26.5484 18.9872C26.3826 18.5868 26.1395 18.223 25.8331 17.9166C25.5266 17.6101 25.1628 17.367 24.7625 17.2012C24.3621 17.0354 23.933 16.95 23.4996 16.95C22.6244 16.95 21.785 17.2977 21.1662 17.9166C20.5473 18.5354 20.1996 19.3748 20.1996 20.25C20.1996 21.1252 20.5473 21.9646 21.1662 22.5835C21.785 23.2023 22.6244 23.55 23.4996 23.55Z" fill="white"/>
<path fill-rule="evenodd" clip-rule="evenodd" d="M34.5 23C34.5 29.0753 29.5753 34 23.5 34C17.4247 34 12.5 29.0753 12.5 23C12.5 16.9247 17.4247 12 23.5 12C29.5753 12 34.5 16.9247 34.5 23ZM28.7965 31.3655C27.2132 32.3711 25.3756 32.9035 23.5 32.9C21.5796 32.9035 19.7001 32.3452 18.0929 31.294C17.9609 31.129 17.8271 30.9585 17.6915 30.7825C17.5341 30.5764 17.4492 30.3241 17.45 30.0648C17.45 29.4724 17.8757 28.9757 18.445 28.8927C22.2097 28.3427 24.8019 28.39 28.5716 28.912C28.8444 28.9519 29.0937 29.089 29.2734 29.2981C29.4532 29.5072 29.5514 29.7741 29.55 30.0499C29.55 30.3139 29.4592 30.5702 29.2953 30.7704C29.1263 30.9761 28.96 31.1745 28.7965 31.3655ZM30.6418 29.8563C30.5538 28.8267 29.7722 27.9676 28.7222 27.8224C24.8635 27.2884 22.1663 27.2372 18.286 27.8043C17.23 27.9583 16.4518 28.8251 16.3594 29.8574C14.5858 28.0155 13.5965 25.557 13.6 23C13.6 17.5325 18.0325 13.1 23.5 13.1C28.9676 13.1 33.4 17.5325 33.4 23C33.4035 25.5565 32.4147 28.0145 30.6418 29.8563Z" fill="white"/>
</g>
<defs>
<clipPath id="clip0_624_7298">
<rect x="3.5" y="3" width="40" height="40" rx="20" fill="white"/>
</clipPath>
</defs>
</svg>
