<svg width="25" height="24" viewBox="0 0 25 24" fill="none" xmlns="http://www.w3.org/2000/svg">
<g clip-path="url(#clip0_622_7086)">
<path d="M5.34612 12.5H7.48898M7.48898 9.28571H18.2033C20.2068 9.28571 21.2075 9.28571 21.9533 9.71643C22.4419 9.99853 22.8476 10.4043 23.1297 10.8929C23.5604 11.6386 23.5604 12.6393 23.5604 14.6429C23.5604 16.6464 23.5604 17.6471 23.1297 18.3929C22.8476 18.8814 22.4419 19.2872 21.9533 19.5693C21.2075 20 20.2068 20 18.2033 20H17.7811C17.0451 20 16.6775 20 16.3336 19.9239C15.8727 19.8216 15.4399 19.6189 15.0661 19.3304C14.7875 19.1139 14.5518 18.8321 14.0804 18.2664C13.7054 17.8164 13.5168 17.5914 13.3015 17.4896C13.159 17.4227 13.0035 17.3881 12.8461 17.3881C12.6887 17.3881 12.5332 17.4227 12.3908 17.4896C12.1754 17.5904 11.9879 17.8154 11.6118 18.2664C11.1404 18.8321 10.9047 19.1139 10.6261 19.3304C10.2524 19.6189 9.81959 19.8216 9.35862 19.9239C9.01576 20 8.64719 20 7.91112 20H7.48898C5.48541 20 4.48469 20 3.73898 19.5693C3.25039 19.2872 2.84465 18.8814 2.56255 18.3929C2.13184 17.6471 2.13184 16.6464 2.13184 14.6429C2.13184 12.6393 2.13184 11.6386 2.56255 10.8929C2.84465 10.4043 3.25039 9.99853 3.73898 9.71643C4.48469 9.28571 5.48541 9.28571 7.48898 9.28571Z" stroke="#002160" stroke-width="2" stroke-linecap="round" stroke-linejoin="round"/>
<path d="M23.5604 13.5714V12.3157C23.5604 11.0804 23.5604 10.4621 23.3965 9.88571C23.3061 9.56939 23.1795 9.26452 23.0193 8.97714C22.729 8.45429 22.2908 8.01714 21.4175 7.14286C20.5443 6.26857 20.1061 5.83143 19.5833 5.54107C19.2959 5.3809 18.991 5.25435 18.6747 5.16393C18.0983 5 17.48 5 16.2447 5H9.44755C8.21219 5 7.59398 5 7.01755 5.16393C6.70122 5.25435 6.39636 5.3809 6.10898 5.54107C5.58612 5.83143 5.14898 6.26964 4.27469 7.14286C3.40041 8.01607 2.96326 8.45429 2.67291 8.97714C2.51274 9.26452 2.38619 9.56939 2.29576 9.88571C2.13184 10.4621 2.13184 11.0804 2.13184 12.3157V13.5714" stroke="#002160" stroke-width="2" stroke-linecap="round" stroke-linejoin="round"/>
</g>
<defs>
<clipPath id="clip0_622_7086">
<rect width="24" height="24" fill="white" transform="translate(0.714844)"/>
</clipPath>
</defs>
</svg>
