<svg width="39" height="46" viewBox="0 0 39 46" fill="none" xmlns="http://www.w3.org/2000/svg">
<g clip-path="url(#clip0_624_7287)">
<path d="M18.5 34C16.9861 34 15.5602 33.7107 14.2222 33.1322C12.8843 32.5529 11.7191 31.7666 10.7267 30.7733C9.73423 29.7801 8.94793 28.6149 8.36778 27.2778C7.78764 25.9407 7.49838 24.5147 7.50001 23C7.50001 21.4812 7.78927 20.054 8.36778 18.7186C8.94712 17.3823 9.73341 16.2183 10.7267 15.2267C11.7199 14.235 12.8851 13.4487 14.2222 12.8678C15.5602 12.2893 16.9861 12 18.5 12C20.0188 12 21.446 12.2893 22.7814 12.8678C24.1177 13.4471 25.2821 14.2334 26.2746 15.2267C27.267 16.2199 28.0529 17.3839 28.6322 18.7186C29.2107 20.0548 29.5 21.482 29.5 23C29.5 24.5139 29.2107 25.9398 28.6322 27.2778C28.0529 28.6157 27.2666 29.7809 26.2733 30.7733C25.2801 31.7658 24.1161 32.5521 22.7814 33.1322C21.4468 33.7124 20.0196 34.0016 18.5 34ZM18.5 32.7875C19.217 31.866 19.8086 30.9611 20.2747 30.073C20.7399 29.1848 21.1184 28.1908 21.4101 27.0908H15.5899C15.9134 28.2527 16.2996 29.2777 16.7486 30.1659C17.1983 31.054 17.7822 31.9279 18.5 32.7875ZM16.9441 32.6042C16.3737 31.932 15.8531 31.1009 15.3821 30.1109C14.9112 29.1217 14.5608 28.1146 14.331 27.0896H9.64378C10.3445 28.6092 11.3374 29.8558 12.6223 30.8295C13.9081 31.8024 15.3487 32.394 16.9441 32.6042ZM20.0559 32.6042C21.6513 32.394 23.0919 31.8024 24.3777 30.8295C25.6626 29.8558 26.6555 28.6092 27.3562 27.0896H22.6702C22.3606 28.1301 21.9707 29.1449 21.5006 30.1341C21.0296 31.1241 20.548 31.9483 20.0559 32.6042ZM9.14512 25.8686H14.0768C13.9839 25.3666 13.9187 24.8777 13.8812 24.4019C13.8421 23.9268 13.8226 23.4596 13.8226 23C13.8226 22.5404 13.8417 22.0731 13.88 21.5981C13.9183 21.1231 13.9835 20.6342 14.0756 20.1314H9.14634C9.01353 20.5551 8.90964 21.0167 8.83467 21.5162C8.75971 22.0149 8.72223 22.5095 8.72223 23C8.72223 23.4905 8.7593 23.9855 8.83345 24.485C8.9076 24.9845 9.01149 25.4453 9.14512 25.8673M15.299 25.8673H21.701C21.7939 25.3662 21.8591 24.8855 21.8966 24.4251C21.9357 23.9656 21.9552 23.4905 21.9552 23C21.9552 22.5095 21.9361 22.0344 21.8978 21.5749C21.8595 21.1153 21.7943 20.6346 21.7022 20.1327H15.2978C15.2057 20.6338 15.1405 21.1145 15.1022 21.5749C15.0639 22.0344 15.0448 22.5095 15.0448 23C15.0448 23.4905 15.0639 23.9656 15.1022 24.4251C15.1405 24.8847 15.2069 25.3654 15.299 25.8673ZM22.9244 25.8673H27.8549C27.9877 25.4444 28.0916 24.9837 28.1666 24.485C28.2407 23.9855 28.2778 23.4905 28.2778 23C28.2778 22.5095 28.2407 22.0145 28.1666 21.515C28.0924 21.0155 27.9885 20.5547 27.8549 20.1327H22.9232C23.0161 20.6338 23.0813 21.1223 23.1188 21.5981C23.1579 22.074 23.1774 22.5413 23.1774 23C23.1774 23.4587 23.1583 23.926 23.12 24.4019C23.0817 24.8777 23.0165 25.3666 22.9244 25.8686M22.6702 18.9104H27.3562C26.64 17.359 25.659 16.1124 24.4131 15.1704C23.1673 14.2285 21.7149 13.6292 20.0559 13.3726C20.6263 14.123 21.1392 14.9814 21.5947 15.9478C22.0501 16.9133 22.4087 17.9009 22.6702 18.9104ZM15.5899 18.9104H21.4101C21.0874 17.7632 20.6894 16.7259 20.216 15.7987C19.7426 14.8714 19.1706 14.0093 18.5 13.2124C17.8294 14.0085 17.2574 14.8706 16.784 15.7987C16.3106 16.7267 15.9117 17.764 15.5899 18.9104ZM9.64501 18.9104H14.331C14.5926 17.9017 14.9511 16.9141 15.4066 15.9478C15.862 14.9814 16.375 14.123 16.9453 13.3726C15.2717 13.63 13.8156 14.233 12.5771 15.1814C11.3386 16.1315 10.3608 17.3741 9.64378 18.9092" fill="black"/>
</g>
<defs>
<clipPath id="clip0_624_7287">
<rect x="-1.5" y="3" width="40" height="40" rx="20" fill="white"/>
</clipPath>
</defs>
</svg>
