<svg width="21" height="22" viewBox="0 0 21 22" fill="none" xmlns="http://www.w3.org/2000/svg">
<path d="M8.6 13.2857L13.5305 10.5L8.6 7.71429V13.2857ZM19.582 6.015C19.7055 6.45143 19.791 7.03643 19.848 7.77929C19.9145 8.52214 19.943 9.16286 19.943 9.72L20 10.5C20 12.5336 19.848 14.0286 19.582 14.985C19.3445 15.8207 18.7935 16.3593 17.9385 16.5914C17.492 16.7121 16.675 16.7957 15.421 16.8514C14.186 16.9164 13.0555 16.9443 12.0105 16.9443L10.5 17C6.5195 17 4.04 16.8514 3.0615 16.5914C2.2065 16.3593 1.6555 15.8207 1.418 14.985C1.2945 14.5486 1.209 13.9636 1.152 13.2207C1.0855 12.4779 1.057 11.8371 1.057 11.28L1 10.5C1 8.46643 1.152 6.97143 1.418 6.015C1.6555 5.17929 2.2065 4.64071 3.0615 4.40857C3.508 4.28786 4.325 4.20429 5.579 4.14857C6.814 4.08357 7.9445 4.05571 8.9895 4.05571L10.5 4C14.4805 4 16.96 4.14857 17.9385 4.40857C18.7935 4.64071 19.3445 5.17929 19.582 6.015Z" fill="white"/>
</svg>
